<?xml version="1.0" encoding="utf-8"?>
<!-- Generator: Adobe Illustrator 16.0.1, SVG Export Plug-In . SVG Version: 6.00 Build 0)  -->
<!DOCTYPE svg PUBLIC "-//W3C//DTD SVG 1.1//EN" "http://www.w3.org/Graphics/SVG/1.1/DTD/svg11.dtd">
<svg version="1.1" id="Layer_1" xmlns="http://www.w3.org/2000/svg" xmlns:xlink="http://www.w3.org/1999/xlink" x="0px" y="0px"
	 width="282px" height="290.475px" viewBox="0 0 282 290.475" enable-background="new 0 0 282 290.475" xml:space="preserve">
<g id="BACKGROUND" display="none">
</g>
<g id="GRAPHICS" display="none">
</g>
<g id="PRINT_SPEC">
	<g>
		<path d="M47.284,272.048c0,0.691-0.3,1.141-0.744,1.592l-0.21-0.143c0.278-0.474,0.398-0.841,0.398-1.509h0.556V272.048z"/>
		<path d="M49.625,277.333c-0.999,0-1.764-0.886-1.764-2.71c0-1.817,0.766-2.71,1.764-2.71s1.764,0.894,1.764,2.71
			C51.389,276.448,50.624,277.333,49.625,277.333z M49.617,272.386c-0.668,0-1.208,0.691-1.208,2.229s0.548,2.244,1.224,2.244
			c0.661,0,1.201-0.689,1.201-2.229S50.293,272.386,49.617,272.386z"/>
		<path d="M54.598,274.984c-0.315,0.165-0.706,0.301-1.119,0.301c-0.848,0-1.441-0.563-1.441-1.6c0-1.051,0.638-1.771,1.569-1.771
			c0.999,0,1.622,0.811,1.622,2.109c0,1.464-0.713,2.598-2.282,3.363l-0.27-0.428C53.765,276.41,54.365,275.765,54.598,274.984z
			 M53.592,272.379c-0.578,0-1.029,0.503-1.029,1.269c0,0.804,0.436,1.201,1.081,1.201c0.345,0,0.751-0.143,1.014-0.3
			c0.022-0.18,0.038-0.368,0.038-0.578C54.696,273.024,54.291,272.379,53.592,272.379z"/>
	</g>
	<g>
		<path d="M6.561,277.251l-0.097-0.398l1.914-2.229c0.398-0.443,0.646-0.841,0.646-1.299c0-0.488-0.315-0.887-0.878-0.887
			c-0.473,0-0.878,0.248-1.284,0.684l-0.286-0.398c0.406-0.442,0.923-0.789,1.629-0.789c0.893,0,1.381,0.586,1.381,1.329
			c0,0.63-0.286,1.104-0.841,1.697l-1.524,1.802h2.477v0.488H6.561z"/>
		<path d="M12.09,277.333c-0.999,0-1.764-0.886-1.764-2.71c0-1.817,0.766-2.71,1.764-2.71s1.764,0.894,1.764,2.71
			C13.854,276.448,13.089,277.333,12.09,277.333z M12.083,272.386c-0.668,0-1.208,0.691-1.208,2.229s0.548,2.244,1.224,2.244
			c0.661,0,1.201-0.689,1.201-2.229S12.758,272.386,12.083,272.386z"/>
		<path d="M16.32,277.333c-0.999,0-1.764-0.886-1.764-2.71c0-1.817,0.766-2.71,1.764-2.71s1.764,0.894,1.764,2.71
			C18.084,276.448,17.319,277.333,16.32,277.333z M16.312,272.386c-0.668,0-1.208,0.691-1.208,2.229s0.548,2.244,1.224,2.244
			c0.661,0,1.201-0.689,1.201-2.229S16.988,272.386,16.312,272.386z"/>
		<path d="M20.408,277.318c-0.999,0-1.674-0.63-1.674-1.464c0-0.721,0.383-1.126,0.976-1.351c-0.473-0.203-0.841-0.563-0.841-1.231
			c0-0.735,0.601-1.344,1.539-1.344c0.946,0,1.546,0.608,1.546,1.344c0,0.668-0.375,1.029-0.841,1.231
			c0.593,0.225,0.968,0.63,0.968,1.351C22.082,276.688,21.398,277.318,20.408,277.318z M20.408,274.698
			c-0.653,0-1.149,0.458-1.149,1.089c0,0.646,0.473,1.096,1.149,1.096c0.675,0,1.148-0.451,1.148-1.096
			C21.556,275.156,21.068,274.698,20.408,274.698z M20.408,272.365c-0.624,0-1.029,0.42-1.029,0.968
			c0,0.593,0.466,0.976,1.029,0.976s1.028-0.383,1.028-0.976C21.436,272.784,21.038,272.365,20.408,272.365z"/>
	</g>
	<g>
		<path d="M84.76,272.048c0,0.691-0.3,1.141-0.744,1.592l-0.21-0.143c0.278-0.474,0.398-0.841,0.398-1.509h0.556V272.048z"/>
		<path d="M85.284,277.251v-0.465h0.946v-4.25l-0.818,0.322l-0.12-0.458l1.089-0.442h0.398v4.827h0.893v0.465L85.284,277.251
			L85.284,277.251z"/>
		<path d="M89.98,277.333c-0.999,0-1.764-0.886-1.764-2.71c0-1.817,0.766-2.71,1.764-2.71s1.764,0.894,1.764,2.71
			C91.745,276.448,90.979,277.333,89.98,277.333z M89.973,272.386c-0.668,0-1.208,0.691-1.208,2.229s0.548,2.244,1.224,2.244
			c0.661,0,1.201-0.689,1.201-2.229S90.648,272.386,89.973,272.386z"/>
	</g>
	<g>
		<path d="M122.427,272.048c0,0.691-0.3,1.141-0.744,1.592l-0.21-0.143c0.278-0.474,0.398-0.841,0.398-1.509h0.556V272.048z"/>
		<path d="M122.951,277.251v-0.465h0.946v-4.25l-0.818,0.322l-0.12-0.458l1.089-0.442h0.398v4.827h0.893v0.465L122.951,277.251
			L122.951,277.251z"/>
		<path d="M125.831,277.251v-0.465h0.946v-4.25l-0.818,0.322l-0.12-0.458l1.089-0.442h0.398v4.827h0.893v0.465L125.831,277.251
			L125.831,277.251z"/>
	</g>
	<g>
		<path d="M158.987,272.048c0,0.691-0.3,1.141-0.744,1.592l-0.209-0.143c0.277-0.474,0.397-0.841,0.397-1.509h0.556V272.048
			L158.987,272.048z"/>
		<path d="M159.511,277.251v-0.465h0.946v-4.25l-0.818,0.322l-0.12-0.458l1.089-0.442h0.398v4.827h0.893v0.465L159.511,277.251
			L159.511,277.251z"/>
		<path d="M162.42,277.251l-0.098-0.398l1.914-2.229c0.398-0.443,0.646-0.841,0.646-1.299c0-0.488-0.315-0.887-0.879-0.887
			c-0.473,0-0.877,0.248-1.283,0.684l-0.285-0.398c0.404-0.442,0.923-0.789,1.629-0.789c0.893,0,1.381,0.586,1.381,1.329
			c0,0.63-0.285,1.104-0.841,1.697l-1.524,1.802h2.479v0.488H162.42z"/>
	</g>
	<g>
		<path d="M196.023,272.048c0,0.691-0.3,1.141-0.743,1.592l-0.21-0.143c0.277-0.474,0.397-0.841,0.397-1.509h0.556V272.048
			L196.023,272.048z"/>
		<path d="M196.547,277.251v-0.465h0.947v-4.25l-0.818,0.322l-0.121-0.458l1.09-0.442h0.396v4.827h0.895v0.465L196.547,277.251
			L196.547,277.251z"/>
		<path d="M199.375,277.304v-0.473c1.711-0.061,2.521-0.488,2.521-1.187c0-0.556-0.531-0.849-1.779-0.886l-0.06-0.383
			c1.209-0.354,1.787-0.767,1.787-1.298c0-0.406-0.339-0.677-0.916-0.677c-0.443,0-0.933,0.165-1.375,0.429l-0.188-0.413
			c0.512-0.3,1.045-0.48,1.646-0.48c0.879,0,1.396,0.443,1.396,1.074c0,0.691-0.562,1.126-1.472,1.457
			c0.991,0.12,1.524,0.465,1.524,1.201C202.461,276.71,201.26,277.244,199.375,277.304z"/>
	</g>
	<g>
		<path d="M232.883,272.048c0,0.691-0.299,1.141-0.742,1.592l-0.211-0.143c0.277-0.474,0.398-0.841,0.398-1.509h0.555V272.048z"/>
		<path d="M233.409,277.251v-0.465h0.944v-4.25l-0.817,0.322l-0.121-0.458l1.09-0.442h0.397v4.827h0.894v0.465L233.409,277.251
			L233.409,277.251z"/>
		<path d="M239.088,275.99v1.261h-0.533v-1.261h-2.381l-0.006-0.437l2.244-3.596h0.676v3.581h0.651v0.451H239.088z M238.562,272.589
			l-1.877,2.958h1.877V272.589z"/>
	</g>
	<g>
		<g>
			<rect x="243.056" y="215.504" fill="#BB2C77" width="4" height="6"/>
			<g>
				<g>
					<path d="M252.991,221.844c-1.707,0-2.707-1.018-2.707-3.001c0-2.026,1.201-3.027,2.782-3.027c0.672,0,1.235,0.144,1.748,0.388
						l-0.396,1.144c-0.396-0.185-0.807-0.32-1.328-0.32c-0.926,0-1.422,0.647-1.422,1.833c0,1.287,0.479,1.867,1.414,1.867
						c0.242,0,0.453-0.051,0.613-0.118v-1.186h-1.001v-1.061h2.286v2.985C254.461,221.625,253.738,221.844,252.991,221.844z"/>
					<path d="M256.685,220.011c0.051,0.597,0.438,0.899,1.043,0.899c0.353,0,0.748-0.102,1.108-0.294l0.312,0.841
						c-0.463,0.252-1.025,0.395-1.547,0.395c-1.229,0-2.102-0.656-2.102-2.253c0-1.488,0.832-2.312,1.908-2.312
						c1.127,0,1.883,0.841,1.883,2.354v0.37H256.685z M256.685,219.254h1.431c-0.035-0.63-0.279-1.018-0.707-1.018
						C256.979,218.237,256.727,218.632,256.685,219.254z"/>
					<path d="M261.061,219.061v2.716h-1.27v-4.405h0.983l0.22,0.715c0.336-0.488,0.756-0.791,1.354-0.782v1.32
						C261.844,218.632,261.415,218.792,261.061,219.061z"/>
					<path d="M267.659,221.777v-2.8c0-0.37-0.177-0.546-0.488-0.546c-0.219,0-0.471,0.109-0.688,0.27
						c0.017,0.033,0.017,0.075,0.017,0.117v2.959h-1.27v-2.8c0-0.37-0.168-0.546-0.479-0.546c-0.219,0-0.473,0.109-0.674,0.261
						v3.085h-1.271v-4.405h1.01L264,217.8c0.362-0.269,0.758-0.488,1.262-0.488c0.488,0,0.842,0.176,1.043,0.514
						c0.395-0.295,0.841-0.514,1.361-0.514c0.799,0,1.262,0.454,1.262,1.362v3.103H267.659z"/>
					<path d="M272.107,221.777l-0.168-0.402c-0.36,0.294-0.739,0.462-1.219,0.462c-0.79,0-1.312-0.446-1.312-1.371
						c0-0.412,0.125-0.749,0.352-0.976c0.271-0.27,0.666-0.403,1.312-0.403c0.252,0,0.58,0.034,0.781,0.076v-0.228
						c0-0.395-0.176-0.614-0.697-0.614c-0.412,0-0.807,0.102-1.193,0.27l-0.286-0.933c0.479-0.193,1.085-0.346,1.69-0.346
						c1.193,0,1.739,0.479,1.739,1.521v2.094l0.101,0.849L272.107,221.777L272.107,221.777z M271.855,220.776v-0.958
						c-0.135-0.017-0.344-0.042-0.504-0.042c-0.336,0-0.504,0.06-0.623,0.178c-0.084,0.092-0.144,0.244-0.144,0.437
						c0,0.42,0.244,0.605,0.605,0.605C271.411,220.995,271.654,220.911,271.855,220.776z"/>
					<path d="M276.258,221.777v-2.792c0-0.369-0.168-0.555-0.506-0.555c-0.228,0-0.486,0.109-0.688,0.261v3.085h-1.271v-4.405h1.01
						l0.186,0.429c0.361-0.269,0.756-0.488,1.286-0.488c0.808,0,1.253,0.479,1.253,1.371v3.094L276.258,221.777L276.258,221.777z"/>
					<path d="M280.87,220.944c-0.445,1.404-0.899,1.791-2.515,2.161l-0.304-1.043c0.464-0.118,0.842-0.294,1.136-0.555l-1.312-4.137
						h1.295l0.781,2.951l0.758-2.951h1.27L280.87,220.944z"/>
					<path d="M250.426,231.377l-0.109-0.446l2.145-2.497c0.445-0.496,0.724-0.94,0.724-1.454c0-0.547-0.354-0.991-0.983-0.991
						c-0.529,0-0.982,0.276-1.438,0.765l-0.318-0.446c0.453-0.496,1.033-0.883,1.824-0.883c1,0,1.547,0.656,1.547,1.488
						c0,0.706-0.32,1.235-0.941,1.899l-1.707,2.019h2.774v0.546L250.426,231.377L250.426,231.377z"/>
					<path d="M256.62,231.469c-1.119,0-1.978-0.992-1.978-3.035c0-2.034,0.856-3.035,1.978-3.035c1.116,0,1.975,1.001,1.975,3.035
						C258.594,230.478,257.736,231.469,256.62,231.469z M256.609,225.929c-0.748,0-1.354,0.773-1.354,2.497s0.615,2.514,1.371,2.514
						c0.74,0,1.347-0.772,1.347-2.497C257.972,226.719,257.368,225.929,256.609,225.929z"/>
					<path d="M259.355,231.377l-0.108-0.446l2.144-2.497c0.444-0.496,0.723-0.94,0.723-1.454c0-0.547-0.353-0.991-0.983-0.991
						c-0.528,0-0.983,0.276-1.438,0.765l-0.32-0.446c0.455-0.496,1.035-0.883,1.826-0.883c1,0,1.547,0.656,1.547,1.488
						c0,0.706-0.32,1.235-0.942,1.899l-1.706,2.019h2.773v0.546L259.355,231.377L259.355,231.377z"/>
					<path d="M264.186,230.679c0,0.773-0.336,1.278-0.842,1.791l-0.227-0.168c0.312-0.53,0.444-0.933,0.444-1.69h0.623
						L264.186,230.679L264.186,230.679z"/>
					<path d="M266.715,231.453c-1.119,0-1.875-0.706-1.875-1.641c0-0.807,0.429-1.261,1.093-1.513c-0.53-0.227-0.94-0.63-0.94-1.379
						c0-0.824,0.672-1.505,1.723-1.505c1.06,0,1.732,0.681,1.732,1.505c0,0.749-0.421,1.152-0.941,1.379
						c0.664,0.252,1.084,0.706,1.084,1.513C268.59,230.747,267.825,231.453,266.715,231.453z M266.715,228.519
						c-0.732,0-1.287,0.514-1.287,1.219c0,0.724,0.529,1.229,1.287,1.229c0.756,0,1.285-0.504,1.285-1.229
						C268,229.031,267.456,228.519,266.715,228.519z M266.715,225.904c-0.698,0-1.152,0.472-1.152,1.085
						c0,0.663,0.521,1.093,1.152,1.093s1.152-0.43,1.152-1.093C267.868,226.375,267.42,225.904,266.715,225.904z"/>
					<path d="M269.267,231.377v-0.521h1.06v-4.758l-0.916,0.361l-0.135-0.514l1.219-0.495h0.445v5.405h1v0.521H269.267z"/>
					<path d="M272.652,231.486l-0.084-0.529c1.884-0.235,2.815-0.857,2.815-1.816c0-0.562-0.37-0.908-0.991-0.908
						c-0.438,0-0.832,0.168-1.271,0.43l-0.43-0.177l0.168-2.992h3.086v0.521h-2.572l-0.117,2.061
						c0.388-0.211,0.808-0.346,1.295-0.346c0.883,0,1.445,0.504,1.445,1.379C275.999,230.469,274.788,231.226,272.652,231.486z"/>
				</g>
			</g>
		</g>
		<g>
			<rect x="243.056" y="189.639" fill="#EF3A43" width="4" height="6"/>
			<g>
				<g>
					<path d="M252.385,195.996c-0.807,0-1.605-0.22-2.211-0.504l0.361-1.118c0.528,0.269,1.235,0.471,1.899,0.471
						c0.588,0,0.856-0.218,0.856-0.562c0-0.328-0.209-0.514-1.033-0.824c-1.271-0.403-1.824-0.815-1.824-1.767
						c0-1.059,0.766-1.739,2.085-1.739c0.715,0,1.371,0.177,1.866,0.402l-0.361,1.118c-0.43-0.21-1.018-0.378-1.572-0.378
						c-0.486,0-0.705,0.202-0.705,0.487c0,0.277,0.16,0.429,1.008,0.73c1.32,0.42,1.858,0.858,1.858,1.833
						C254.613,195.357,253.782,195.996,252.385,195.996z"/>
					<path d="M259.907,195.937h-1.32l-0.732-2.716l-0.705,2.716h-1.328l-1.068-4.431h1.252l0.548,2.758l0.688-2.758h1.271
						l0.682,2.741l0.562-2.741h1.229L259.907,195.937z"/>
					<path d="M262.321,194.146c0.051,0.598,0.438,0.899,1.043,0.899c0.354,0,0.748-0.102,1.109-0.294l0.312,0.841
						c-0.463,0.252-1.025,0.395-1.547,0.395c-1.23,0-2.103-0.655-2.103-2.253c0-1.487,0.832-2.312,1.907-2.312
						c1.127,0,1.884,0.841,1.884,2.354v0.37H262.321z M262.321,193.389h1.43c-0.033-0.63-0.277-1.017-0.705-1.017
						C262.616,192.372,262.363,192.767,262.321,193.389z"/>
					<path d="M266.959,191.448c0.353,0,0.629,0.092,0.916,0.243v-1.857h1.27v6.079h-1l-0.186-0.396
						c-0.277,0.244-0.605,0.462-1.109,0.462c-0.908,0-1.581-0.765-1.581-2.262S265.975,191.448,266.959,191.448z M267.262,194.937
						c0.242,0,0.453-0.108,0.613-0.235v-2.026c-0.168-0.109-0.379-0.193-0.599-0.193c-0.495,0-0.789,0.388-0.789,1.236
						C266.488,194.541,266.782,194.937,267.262,194.937z"/>
					<path d="M270.855,194.146c0.052,0.598,0.438,0.899,1.043,0.899c0.354,0,0.748-0.102,1.108-0.294l0.312,0.841
						c-0.462,0.252-1.025,0.395-1.548,0.395c-1.228,0-2.103-0.655-2.103-2.253c0-1.487,0.832-2.312,1.908-2.312
						c1.127,0,1.885,0.841,1.885,2.354v0.37H270.855z M270.855,193.389h1.431c-0.033-0.63-0.277-1.017-0.707-1.017
						C271.15,192.372,270.898,192.767,270.855,193.389z"/>
					<path d="M276.426,195.912v-2.792c0-0.37-0.168-0.556-0.504-0.556c-0.229,0-0.488,0.109-0.689,0.262v3.085h-1.27v-4.406h1.008
						l0.186,0.429c0.361-0.269,0.758-0.488,1.287-0.488c0.807,0,1.252,0.479,1.252,1.371v3.095L276.426,195.912L276.426,195.912z"/>
					<path d="M252.268,205.587c-1.119,0-1.875-0.706-1.875-1.64c0-0.808,0.43-1.262,1.093-1.514c-0.53-0.227-0.94-0.63-0.94-1.379
						c0-0.824,0.672-1.505,1.724-1.505c1.06,0,1.731,0.681,1.731,1.505c0,0.749-0.42,1.152-0.941,1.379
						c0.664,0.252,1.085,0.706,1.085,1.514C254.143,204.881,253.377,205.587,252.268,205.587z M252.268,202.653
						c-0.732,0-1.287,0.514-1.287,1.22c0,0.723,0.529,1.228,1.287,1.228c0.756,0,1.286-0.504,1.286-1.228
						C253.554,203.166,253.008,202.653,252.268,202.653z M252.268,200.039c-0.698,0-1.152,0.471-1.152,1.084
						c0,0.664,0.521,1.093,1.152,1.093s1.152-0.429,1.152-1.093C253.42,200.509,252.974,200.039,252.268,200.039z"/>
					<path d="M254.819,205.512v-0.521h1.061v-4.759l-0.918,0.361l-0.133-0.513l1.219-0.496h0.445v5.406h1v0.521H254.819z"/>
					<path d="M258.717,204.814c0,0.773-0.336,1.278-0.84,1.791l-0.229-0.168c0.312-0.529,0.446-0.933,0.446-1.689h0.62v0.066
						H258.717z"/>
					<path d="M259.312,205.571v-0.529c1.918-0.067,2.826-0.546,2.826-1.329c0-0.622-0.599-0.95-1.993-0.992l-0.066-0.429
						c1.354-0.396,2-0.857,2-1.455c0-0.454-0.377-0.756-1.025-0.756c-0.495,0-1.042,0.185-1.538,0.479l-0.21-0.462
						c0.572-0.336,1.168-0.538,1.842-0.538c0.982,0,1.562,0.496,1.562,1.202c0,0.774-0.631,1.261-1.646,1.631
						c1.109,0.134,1.706,0.521,1.706,1.345C262.769,204.906,261.424,205.503,259.312,205.571z"/>
					<path d="M263.497,205.512l-0.109-0.446l2.145-2.497c0.445-0.495,0.723-0.94,0.723-1.453c0-0.548-0.354-0.992-0.982-0.992
						c-0.529,0-0.982,0.276-1.438,0.765l-0.318-0.446c0.453-0.496,1.033-0.883,1.824-0.883c1,0,1.547,0.656,1.547,1.488
						c0,0.706-0.32,1.236-0.941,1.9l-1.707,2.018h2.774v0.546L263.497,205.512L263.497,205.512z"/>
					<path d="M267.814,205.621l-0.084-0.53c1.883-0.235,2.815-0.857,2.815-1.816c0-0.562-0.371-0.907-0.991-0.907
						c-0.438,0-0.832,0.168-1.271,0.429l-0.43-0.176l0.168-2.993h3.086v0.521h-2.572l-0.117,2.061
						c0.388-0.21,0.808-0.345,1.295-0.345c0.883,0,1.445,0.504,1.445,1.379C271.161,204.604,269.95,205.36,267.814,205.621z"/>
				</g>
			</g>
		</g>
		<g>
			<rect x="243.056" y="163.773" fill="#FAA224" width="4" height="6"/>
			<g>
				<g>
					<path d="M250.493,170.046v-5.885h1.362v5.885H250.493z"/>
					<path d="M254.393,170.105c-0.959,0-1.455-0.396-1.455-1.421v-2.025h-0.555v-1.019h0.555v-1.16h1.27v1.16h1.051v1.019h-1.051
						v1.85c0,0.387,0.203,0.538,0.547,0.538c0.178,0,0.336-0.025,0.504-0.076v1.017
						C255.032,170.055,254.737,170.105,254.393,170.105z"/>
					<path d="M258.299,170.046l-0.168-0.403c-0.361,0.294-0.74,0.462-1.219,0.462c-0.791,0-1.312-0.445-1.312-1.371
						c0-0.411,0.127-0.749,0.354-0.976c0.271-0.269,0.664-0.403,1.312-0.403c0.253,0,0.581,0.034,0.781,0.076v-0.227
						c0-0.396-0.176-0.614-0.696-0.614c-0.412,0-0.808,0.101-1.194,0.269l-0.285-0.933c0.479-0.193,1.084-0.345,1.688-0.345
						c1.194,0,1.739,0.479,1.739,1.521v2.094l0.103,0.85L258.299,170.046L258.299,170.046z M258.047,169.046v-0.958
						c-0.135-0.017-0.346-0.042-0.504-0.042c-0.338,0-0.506,0.059-0.623,0.177c-0.084,0.092-0.144,0.244-0.144,0.438
						c0,0.42,0.244,0.604,0.604,0.604C257.602,169.265,257.846,169.18,258.047,169.046z"/>
					<path d="M259.993,170.046v-6.079h1.278v6.079H259.993z"/>
					<path d="M264.7,169.214c-0.445,1.404-0.9,1.791-2.515,2.161l-0.304-1.043c0.464-0.118,0.842-0.294,1.136-0.556l-1.312-4.137
						H263l0.781,2.951l0.758-2.951h1.27L264.7,169.214z"/>
					<path d="M251.159,176.309c0.344-0.185,0.789-0.345,1.252-0.345c0.949,0,1.613,0.631,1.613,1.791
						c0,1.177-0.714,1.984-1.757,1.984c-1.119,0-1.815-0.908-1.815-2.362c0-1.641,0.799-2.909,2.557-3.768l0.303,0.479
						C252.083,174.703,251.411,175.426,251.159,176.309z M252.284,179.218c0.647,0,1.151-0.562,1.151-1.421
						c0-0.9-0.487-1.345-1.211-1.345c-0.396,0-0.849,0.159-1.144,0.345c-0.024,0.193-0.033,0.403-0.033,0.639
						C251.049,178.495,251.502,179.218,252.284,179.218z"/>
					<path d="M257.838,178.234v1.413h-0.598v-1.413h-2.666l-0.009-0.486l2.515-4.027h0.758v4.01h0.729v0.504H257.838z
						 M257.249,174.425l-2.103,3.312h2.103V174.425z"/>
					<path d="M259.758,178.949c0,0.772-0.336,1.277-0.84,1.791l-0.228-0.168c0.312-0.53,0.445-0.934,0.445-1.69h0.622V178.949
						L259.758,178.949z"/>
					<path d="M261.179,176.309c0.345-0.185,0.79-0.345,1.253-0.345c0.949,0,1.613,0.631,1.613,1.791
						c0,1.177-0.715,1.984-1.756,1.984c-1.119,0-1.816-0.908-1.816-2.362c0-1.641,0.799-2.909,2.556-3.768l0.304,0.479
						C262.104,174.703,261.431,175.426,261.179,176.309z M262.305,179.218c0.648,0,1.152-0.562,1.152-1.421
						c0-0.9-0.488-1.345-1.211-1.345c-0.396,0-0.851,0.159-1.144,0.345c-0.024,0.193-0.034,0.403-0.034,0.639
						C261.069,178.495,261.523,179.218,262.305,179.218z"/>
					<path d="M264.756,179.646l-0.109-0.445l2.145-2.497c0.445-0.496,0.724-0.941,0.724-1.454c0-0.547-0.354-0.992-0.983-0.992
						c-0.529,0-0.982,0.277-1.438,0.765l-0.318-0.445c0.453-0.496,1.033-0.884,1.824-0.884c1,0,1.547,0.656,1.547,1.488
						c0,0.706-0.32,1.236-0.941,1.9l-1.707,2.018h2.774v0.546L264.756,179.646L264.756,179.646z"/>
					<path d="M269.075,179.756l-0.084-0.53c1.883-0.234,2.815-0.856,2.815-1.815c0-0.563-0.371-0.908-0.992-0.908
						c-0.438,0-0.832,0.168-1.271,0.429l-0.43-0.176l0.168-2.993h3.086v0.521h-2.572l-0.116,2.06
						c0.387-0.21,0.807-0.345,1.294-0.345c0.883,0,1.445,0.504,1.445,1.379C272.42,178.739,271.209,179.495,269.075,179.756z"/>
				</g>
			</g>
		</g>
		<rect x="243.056" y="137.908" fill="#FFD73D" width="4" height="6"/>
		<g>
			<path d="M251.823,139.473v1.336h2v1.177h-2v2.194h-1.347v-5.885h3.91v1.177L251.823,139.473L251.823,139.473z"/>
			<path d="M255.862,141.465v2.716h-1.27v-4.406h0.982l0.219,0.716c0.336-0.488,0.758-0.791,1.354-0.782v1.319
				C256.645,141.037,256.215,141.196,255.862,141.465z"/>
			<path d="M259.895,144.181l-0.168-0.403c-0.361,0.295-0.739,0.463-1.219,0.463c-0.791,0-1.312-0.446-1.312-1.371
				c0-0.412,0.126-0.749,0.354-0.977c0.27-0.269,0.664-0.402,1.312-0.402c0.252,0,0.58,0.033,0.781,0.075v-0.227
				c0-0.396-0.177-0.614-0.697-0.614c-0.411,0-0.807,0.102-1.192,0.27l-0.287-0.934c0.479-0.192,1.084-0.345,1.689-0.345
				c1.194,0,1.74,0.479,1.74,1.521v2.095l0.102,0.849L259.895,144.181L259.895,144.181z M259.643,143.181v-0.958
				c-0.135-0.017-0.344-0.042-0.504-0.042c-0.336,0-0.504,0.06-0.623,0.177c-0.084,0.093-0.143,0.244-0.143,0.438
				c0,0.42,0.244,0.604,0.604,0.604C259.197,143.399,259.441,143.315,259.643,143.181z"/>
			<path d="M264.045,144.181v-2.792c0-0.37-0.168-0.555-0.506-0.555c-0.228,0-0.486,0.108-0.688,0.261v3.085h-1.271v-4.406h1.01
				l0.186,0.43c0.361-0.27,0.756-0.488,1.286-0.488c0.808,0,1.253,0.479,1.253,1.371v3.094L264.045,144.181L264.045,144.181z"/>
			<path d="M267.833,144.257c-1.244,0-2.019-0.866-2.019-2.271c0-1.387,0.799-2.286,2.095-2.286c0.471,0,0.84,0.093,1.192,0.235
				l-0.233,1.093c-0.271-0.117-0.564-0.219-0.893-0.219c-0.614,0-0.967,0.488-0.967,1.16c0,0.732,0.345,1.177,0.982,1.177
				c0.303,0,0.605-0.092,0.9-0.227l0.234,1.042C268.766,144.131,268.312,144.257,267.833,144.257z"/>
			<path d="M270.57,142.416c0.052,0.597,0.438,0.898,1.043,0.898c0.354,0,0.748-0.101,1.109-0.294l0.312,0.841
				c-0.461,0.253-1.025,0.396-1.548,0.396c-1.228,0-2.103-0.656-2.103-2.253c0-1.488,0.832-2.312,1.908-2.312
				c1.127,0,1.885,0.842,1.885,2.354v0.37H270.57z M270.57,141.659H272c-0.033-0.631-0.277-1.018-0.707-1.018
				C270.866,140.642,270.613,141.037,270.57,141.659z"/>
			<path d="M251.159,150.443c0.344-0.185,0.789-0.345,1.252-0.345c0.949,0,1.613,0.631,1.613,1.791c0,1.177-0.714,1.984-1.757,1.984
				c-1.119,0-1.815-0.908-1.815-2.362c0-1.64,0.799-2.909,2.557-3.767l0.303,0.479C252.083,148.837,251.411,149.561,251.159,150.443
				z M252.284,153.353c0.647,0,1.151-0.562,1.151-1.421c0-0.899-0.487-1.345-1.211-1.345c-0.396,0-0.849,0.16-1.144,0.345
				c-0.024,0.193-0.033,0.403-0.033,0.639C251.049,152.629,251.502,153.353,252.284,153.353z"/>
			<path d="M254.735,153.781l-0.109-0.446l2.145-2.497c0.445-0.496,0.723-0.941,0.723-1.454c0-0.547-0.353-0.992-0.981-0.992
				c-0.53,0-0.984,0.277-1.438,0.766l-0.318-0.446c0.453-0.496,1.033-0.883,1.824-0.883c1,0,1.547,0.655,1.547,1.487
				c0,0.706-0.319,1.236-0.941,1.9l-1.707,2.018h2.775v0.547L254.735,153.781L254.735,153.781z"/>
			<path d="M259.565,153.083c0,0.772-0.337,1.277-0.841,1.791l-0.228-0.168c0.312-0.53,0.445-0.934,0.445-1.69h0.622
				L259.565,153.083L259.565,153.083z"/>
			<path d="M261.213,153.849l-0.59-0.192l2.43-5.214h-2.842v-0.546h3.48v0.572L261.213,153.849z"/>
			<path d="M264.252,153.84v-0.53c1.916-0.066,2.824-0.546,2.824-1.329c0-0.622-0.597-0.949-1.992-0.991l-0.066-0.43
				c1.354-0.395,2-0.856,2-1.455c0-0.454-0.378-0.756-1.025-0.756c-0.496,0-1.043,0.186-1.539,0.479l-0.209-0.462
				c0.571-0.336,1.168-0.538,1.842-0.538c0.982,0,1.562,0.496,1.562,1.202c0,0.773-0.631,1.261-1.646,1.631
				c1.109,0.134,1.705,0.521,1.705,1.345C267.708,153.176,266.362,153.773,264.252,153.84z"/>
			<path d="M268.562,153.891l-0.084-0.53c1.884-0.234,2.815-0.856,2.815-1.815c0-0.563-0.369-0.908-0.992-0.908
				c-0.436,0-0.831,0.168-1.27,0.429l-0.429-0.176l0.168-2.993h3.086v0.521h-2.571l-0.119,2.06c0.388-0.21,0.809-0.345,1.295-0.345
				c0.883,0,1.447,0.504,1.447,1.379C271.909,152.873,270.697,153.63,268.562,153.891z"/>
		</g>
		<rect x="243.056" y="100.771" fill="#E2E3E4" width="4" height="6"/>
		<g>
			<path d="M253.688,107.043l-0.781-1.429c-0.244-0.404-0.471-0.547-0.883-0.547h-0.219v1.977h-1.328v-5.885h2.043
				c1.547,0,2.312,0.63,2.312,1.766c0,1.042-0.683,1.505-1.347,1.715c0.354,0.144,0.548,0.345,0.815,0.799l0.934,1.589v0.018h-1.547
				V107.043z M252.461,102.26h-0.656v1.732h0.58c0.682,0,1.068-0.312,1.068-0.908C253.454,102.554,253.142,102.26,252.461,102.26z"
				/>
			<path d="M256.475,105.278c0.051,0.598,0.438,0.899,1.043,0.899c0.354,0,0.748-0.101,1.109-0.294l0.312,0.841
				c-0.462,0.252-1.026,0.396-1.548,0.396c-1.227,0-2.102-0.656-2.102-2.253c0-1.488,0.832-2.312,1.908-2.312
				c1.127,0,1.883,0.841,1.883,2.354v0.369H256.475z M256.475,104.521h1.43c-0.033-0.63-0.277-1.017-0.707-1.017
				C256.77,103.504,256.518,103.899,256.475,104.521z"/>
			<path d="M261.213,107.119c-0.689,0-1.379-0.16-1.9-0.42l0.328-0.992c0.479,0.234,1.093,0.412,1.555,0.412
				c0.346,0,0.539-0.118,0.539-0.319c0-0.202-0.127-0.286-0.781-0.488c-0.951-0.276-1.43-0.555-1.43-1.371
				c0-0.823,0.588-1.379,1.656-1.379c0.588,0,1.143,0.136,1.597,0.354l-0.312,0.975c-0.42-0.192-0.883-0.328-1.295-0.328
				c-0.312,0-0.461,0.118-0.461,0.286c0,0.193,0.125,0.277,0.756,0.471c1.102,0.319,1.445,0.656,1.445,1.404
				C262.911,106.657,262.264,107.119,261.213,107.119z"/>
			<path d="M265.103,107.103c-0.958,0-1.454-0.396-1.454-1.421v-2.025h-0.557v-1.019h0.557v-1.16h1.27v1.16h1.051v1.019h-1.051v1.85
				c0,0.387,0.201,0.538,0.547,0.538c0.177,0,0.336-0.025,0.504-0.076v1.017C265.741,107.052,265.447,107.103,265.103,107.103z"/>
			<path d="M252.2,116.728c-1.109,0-1.968-0.814-1.968-2.277c0-1.472,0.866-2.295,1.978-2.295c1.108,0,1.959,0.814,1.959,2.286
				C254.168,115.904,253.311,116.728,252.2,116.728z M252.2,113.213c-0.479,0-0.781,0.437-0.781,1.228
				c0,0.782,0.312,1.229,0.791,1.229c0.471,0,0.781-0.438,0.781-1.219C252.991,113.659,252.68,113.213,252.2,113.213z"/>
			<path d="M257.586,110.666l-0.168,0.925c-0.203-0.051-0.404-0.093-0.605-0.093c-0.371,0-0.529,0.21-0.529,0.555v0.27h0.982v1.009
				h-0.975v3.312h-1.263v-3.312h-0.588v-1.009h0.588v-0.32c0-0.934,0.455-1.479,1.521-1.479
				C256.947,110.523,257.316,110.582,257.586,110.666z"/>
			<path d="M259.549,116.644v-5.885h3.977v1.152h-2.648v1.151h2.347v1.136h-2.347v1.295h2.699v1.151L259.549,116.644
				L259.549,116.644z"/>
			<path d="M266.48,116.728c-1.347,0-2.287-0.664-2.287-2.295v-3.674h1.354v3.741c0,0.757,0.404,1.067,0.941,1.067
				c0.547,0,0.94-0.311,0.94-1.067v-3.741h1.346v3.666C268.775,116.063,267.816,116.728,266.48,116.728z"/>
			<path d="M250.426,126.244l-0.109-0.446l2.145-2.497c0.445-0.496,0.724-0.941,0.724-1.454c0-0.547-0.354-0.992-0.983-0.992
				c-0.529,0-0.982,0.277-1.438,0.766l-0.318-0.446c0.453-0.496,1.033-0.883,1.824-0.883c1,0,1.547,0.656,1.547,1.487
				c0,0.706-0.32,1.236-0.941,1.9l-1.707,2.019h2.774v0.546L250.426,126.244L250.426,126.244z"/>
			<path d="M254.584,126.244v-0.521h1.059v-4.758l-0.916,0.361l-0.135-0.514l1.22-0.496h0.444v5.406h1.002v0.521H254.584z"/>
			<path d="M257.75,126.303v-0.53c1.918-0.066,2.826-0.546,2.826-1.329c0-0.621-0.599-0.949-1.994-0.991l-0.066-0.43
				c1.354-0.395,2.001-0.856,2.001-1.455c0-0.453-0.378-0.756-1.026-0.756c-0.494,0-1.041,0.186-1.537,0.479l-0.211-0.462
				c0.572-0.336,1.168-0.538,1.842-0.538c0.982,0,1.563,0.496,1.563,1.202c0,0.773-0.631,1.261-1.647,1.631
				c1.109,0.134,1.707,0.521,1.707,1.345C261.206,125.638,259.861,126.235,257.75,126.303z"/>
			<path d="M262.572,125.546c0,0.772-0.336,1.278-0.84,1.791l-0.228-0.168c0.312-0.53,0.445-0.934,0.445-1.69h0.621L262.572,125.546
				L262.572,125.546z"/>
			<path d="M263.993,122.906c0.346-0.186,0.791-0.346,1.252-0.346c0.95,0,1.614,0.631,1.614,1.791c0,1.177-0.715,1.984-1.757,1.984
				c-1.118,0-1.816-0.908-1.816-2.362c0-1.64,0.799-2.909,2.557-3.767l0.303,0.479C264.918,121.3,264.245,122.023,263.993,122.906z
				 M265.12,125.815c0.646,0,1.151-0.562,1.151-1.421c0-0.899-0.487-1.345-1.211-1.345c-0.396,0-0.851,0.16-1.144,0.345
				c-0.025,0.193-0.035,0.403-0.035,0.64C263.883,125.092,264.338,125.815,265.12,125.815z"/>
			<path d="M270.672,124.831v1.413h-0.596v-1.413h-2.666l-0.009-0.487l2.515-4.027h0.756v4.011h0.731v0.504H270.672z
				 M270.084,121.022l-2.103,3.312h2.103V121.022z"/>
			<path d="M273.956,126.336c-1.117,0-1.976-0.992-1.976-3.035c0-2.035,0.856-3.035,1.976-3.035s1.977,1,1.977,3.035
				C275.932,125.344,275.075,126.336,273.956,126.336z M273.947,120.795c-0.747,0-1.354,0.772-1.354,2.497
				c0,1.724,0.613,2.514,1.371,2.514c0.74,0,1.346-0.773,1.346-2.497C275.31,121.586,274.704,120.795,273.947,120.795z"/>
		</g>
	</g>
	<polygon id="WSJ_x5F_Charter_x5F_Empty_x5F_Point_1_" fill="none" points="0,0 0,0 0,0 	"/>
	<polygon id="WSJ_x5F_Charter_x5F_Origin_x5F_Point_1_" fill="none" points="0,0 0,0 0,0 	"/>
	<rect y="0" opacity="1.000000e-04" fill="#FFFFFF" enable-background="new    " width="282" height="3.2"/>
	<g>
		<path d="M3.492,19.336c-1.21,0-2.407-0.328-3.315-0.756l0.542-1.677c0.794,0.403,1.853,0.706,2.849,0.706
			c0.882,0,1.286-0.327,1.286-0.845c0-0.491-0.315-0.769-1.55-1.234c-1.903-0.605-2.735-1.224-2.735-2.647
			c0-1.588,1.146-2.609,3.125-2.609c1.071,0,2.054,0.266,2.798,0.605L5.95,12.556c-0.643-0.314-1.525-0.566-2.357-0.566
			c-0.731,0-1.059,0.303-1.059,0.73c0,0.416,0.24,0.643,1.513,1.096c1.979,0.63,2.785,1.286,2.785,2.748
			C6.832,18.378,5.584,19.336,3.492,19.336z"/>
		<path d="M9.149,16.563c0.075,0.896,0.655,1.35,1.562,1.35c0.529,0,1.122-0.151,1.664-0.441l0.466,1.26
			c-0.693,0.378-1.538,0.593-2.319,0.593c-1.84,0-3.151-0.983-3.151-3.378c0-2.23,1.248-3.466,2.861-3.466
			c1.688,0,2.823,1.261,2.823,3.529v0.554H9.149z M9.149,15.429h2.143c-0.051-0.945-0.416-1.525-1.059-1.525
			S9.212,14.497,9.149,15.429z"/>
		<path d="M15.323,16.563c0.075,0.896,0.655,1.35,1.562,1.35c0.529,0,1.122-0.151,1.664-0.441l0.466,1.26
			c-0.693,0.378-1.538,0.593-2.319,0.593c-1.84,0-3.151-0.983-3.151-3.378c0-2.23,1.248-3.466,2.861-3.466
			c1.688,0,2.823,1.261,2.823,3.529v0.554H15.323z M15.323,15.429h2.143c-0.051-0.945-0.416-1.525-1.059-1.525
			C15.764,13.904,15.386,14.497,15.323,15.429z"/>
		<path d="M23.702,19.21l-1.777-3.038h-0.038v3.038h-1.903v-9.112h1.903v5.269h0.038l1.739-2.761h2.155v0.014l-2.13,3.15
			l2.206,3.429v0.013L23.702,19.21L23.702,19.21z"/>
		<path d="M26.36,11.963v-1.424h1.991v1.424H26.36z M26.397,19.21v-6.604h1.916v6.604H26.397z"/>
		<path d="M33.076,19.21v-4.186c0-0.555-0.252-0.832-0.756-0.832c-0.34,0-0.731,0.164-1.033,0.392v4.625h-1.903v-6.604h1.513
			l0.277,0.644c0.542-0.403,1.134-0.731,1.928-0.731c1.21,0,1.878,0.718,1.878,2.054v4.639L33.076,19.21L33.076,19.21z"/>
		<path d="M38.216,12.518c0.706,0,1.197,0.302,1.601,0.644l0.252-0.556h1.5v5.849c0,2.042-1.172,2.772-3.012,2.772
			c-0.882,0-1.714-0.126-2.42-0.34l0.189-1.323c0.693,0.214,1.349,0.34,2.004,0.34c0.857,0,1.336-0.314,1.336-1.121v-0.266
			c-0.34,0.277-0.845,0.518-1.45,0.518c-1.449,0-2.458-1.109-2.458-3.215C35.759,13.715,36.767,12.518,38.216,12.518z
			 M38.746,17.547c0.353,0,0.681-0.164,0.92-0.354v-2.836c-0.252-0.164-0.567-0.29-0.895-0.29c-0.744,0-1.185,0.567-1.185,1.74
			C37.586,16.967,38.027,17.547,38.746,17.547z"/>
		<path d="M50.237,19.21l-1.172-2.144c-0.365-0.604-0.706-0.818-1.323-0.818h-0.328v2.962h-1.991v-8.823h3.062
			c2.319,0,3.466,0.945,3.466,2.647c0,1.562-1.021,2.256-2.017,2.57c0.529,0.214,0.819,0.518,1.222,1.197l1.399,2.382v0.025
			L50.237,19.21L50.237,19.21z M48.397,12.039h-0.983v2.596h0.87c1.021,0,1.601-0.466,1.601-1.361
			C49.884,12.48,49.418,12.039,48.397,12.039z"/>
		<path d="M54.42,16.563c0.076,0.896,0.655,1.35,1.562,1.35c0.53,0,1.122-0.151,1.664-0.441l0.466,1.26
			c-0.693,0.378-1.538,0.593-2.319,0.593c-1.84,0-3.151-0.983-3.151-3.378c0-2.23,1.248-3.466,2.861-3.466
			c1.689,0,2.823,1.261,2.823,3.529v0.554H54.42z M54.42,15.429h2.143c-0.05-0.945-0.416-1.525-1.059-1.525
			S54.483,14.497,54.42,15.429z"/>
		<path d="M63.404,10.249l-0.252,1.387c-0.303-0.076-0.605-0.139-0.908-0.139c-0.555,0-0.794,0.314-0.794,0.832v0.402h1.475v1.514
			h-1.462v4.966h-1.891v-4.966H58.69v-1.514h0.882v-0.479c0-1.399,0.681-2.219,2.281-2.219
			C62.446,10.035,63.001,10.123,63.404,10.249z"/>
		<path d="M65.419,12.606v4.186c0,0.555,0.252,0.844,0.756,0.844c0.353,0,0.731-0.176,1.034-0.391v-4.639h1.903v6.604H67.6
			l-0.277-0.644c-0.542,0.403-1.134,0.731-1.916,0.731c-1.223,0-1.891-0.706-1.891-2.042v-4.651L65.419,12.606L65.419,12.606z"/>
		<path d="M72.387,12.518c0.706,0,1.197,0.302,1.601,0.644l0.252-0.556h1.5v5.849c0,2.042-1.172,2.772-3.012,2.772
			c-0.882,0-1.714-0.126-2.42-0.34l0.189-1.323c0.693,0.214,1.349,0.34,2.004,0.34c0.857,0,1.336-0.314,1.336-1.121v-0.266
			c-0.34,0.277-0.845,0.518-1.45,0.518c-1.449,0-2.458-1.109-2.458-3.215C69.93,13.715,70.938,12.518,72.387,12.518z M72.917,17.547
			c0.353,0,0.681-0.164,0.92-0.354v-2.836c-0.252-0.164-0.567-0.29-0.895-0.29c-0.744,0-1.185,0.567-1.185,1.74
			C71.757,16.967,72.198,17.547,72.917,17.547z"/>
		<path d="M78.309,16.563c0.075,0.896,0.655,1.35,1.562,1.35c0.529,0,1.122-0.151,1.664-0.441l0.466,1.26
			c-0.693,0.378-1.538,0.593-2.319,0.593c-1.84,0-3.151-0.983-3.151-3.378c0-2.23,1.248-3.466,2.861-3.466
			c1.688,0,2.823,1.261,2.823,3.529v0.554H78.309z M78.309,15.429h2.143c-0.051-0.945-0.416-1.525-1.059-1.525
			S78.372,14.497,78.309,15.429z"/>
	</g>
	<g>
		<path d="M3.952,31.574l-2.674-4.708l0.008,0.302v4.406H0.589v-5.886h0.858l2.64,4.642l-0.008-0.304v-4.338h0.698v5.886H3.952z"/>
		<path d="M6.537,27.244v2.833c0,0.597,0.277,0.925,0.824,0.925c0.361,0,0.74-0.186,1.009-0.387v-3.372h0.715v4.33H8.529
			l-0.126-0.43C8.05,31.414,7.638,31.633,7.1,31.633c-0.815,0-1.278-0.488-1.278-1.404v-2.984H6.537z"/>
		<path d="M15.083,31.574v-2.843c0-0.597-0.286-0.917-0.824-0.917c-0.336,0-0.715,0.178-1.034,0.42
			c0.042,0.118,0.067,0.252,0.067,0.404v2.935h-0.715v-2.843c0-0.597-0.277-0.917-0.799-0.917c-0.353,0-0.723,0.186-0.992,0.388
			v3.372h-0.714v-4.33h0.555l0.126,0.42c0.353-0.27,0.765-0.479,1.278-0.479c0.496,0,0.857,0.186,1.059,0.546
			c0.42-0.311,0.892-0.546,1.421-0.546c0.807,0,1.287,0.472,1.287,1.387v3.002h-0.715V31.574z"/>
		<path d="M18.508,31.641c-0.446,0-0.807-0.185-1.093-0.42l-0.109,0.354H16.75v-6.079h0.715v2.093
			c0.26-0.21,0.613-0.412,1.076-0.412c0.95,0,1.614,0.807,1.614,2.211C20.156,30.834,19.475,31.641,18.508,31.641z M18.339,27.773
			c-0.345,0-0.647,0.168-0.874,0.362v2.572c0.235,0.185,0.546,0.336,0.874,0.336c0.665-0.008,1.127-0.572,1.127-1.648
			C19.466,28.371,19.021,27.773,18.339,27.773z"/>
		<path d="M21.396,29.657c0.042,0.891,0.546,1.438,1.278,1.438c0.37,0,0.757-0.118,1.118-0.336l0.21,0.496
			c-0.438,0.252-0.917,0.395-1.388,0.395c-1.059,0-1.883-0.715-1.883-2.228c0-1.379,0.74-2.262,1.724-2.262
			c1.034,0,1.69,0.891,1.69,2.277v0.22H21.396z M21.396,29.186h2.085c-0.042-0.883-0.42-1.471-1.034-1.471
			C21.85,27.715,21.446,28.329,21.396,29.186z"/>
		<path d="M25.604,28.513v3.062H24.89v-4.33h0.546l0.126,0.707c0.37-0.462,0.833-0.766,1.472-0.758v0.731
			C26.454,27.942,26,28.16,25.604,28.513z"/>
		<path d="M31.048,31.658c-1.018,0-1.783-0.866-1.783-2.245c0-1.388,0.774-2.253,1.791-2.253s1.782,0.856,1.782,2.245
			C32.839,30.783,32.065,31.658,31.048,31.658z M31.048,27.765c-0.647,0-1.11,0.647-1.11,1.641c0,0.991,0.462,1.646,1.118,1.646
			c0.647,0,1.11-0.656,1.11-1.639C32.167,28.421,31.704,27.765,31.048,27.765z"/>
		<path d="M36.106,25.587l-0.109,0.546c-0.185-0.05-0.404-0.101-0.631-0.101c-0.504,0-0.714,0.303-0.714,0.79v0.453h1.135v0.59
			H34.66v3.708h-0.706v-3.708h-0.665v-0.59h0.665v-0.462c0-0.849,0.412-1.361,1.303-1.361
			C35.576,25.453,35.887,25.512,36.106,25.587z"/>
		<path d="M40.692,31.574l-0.151-0.488c-0.412,0.362-0.824,0.547-1.312,0.547c-0.756,0-1.286-0.446-1.286-1.32
			c0-0.395,0.118-0.723,0.345-0.95c0.269-0.269,0.664-0.411,1.513-0.411c0.168,0,0.555,0.024,0.698,0.059v-0.403
			c0-0.538-0.252-0.833-0.891-0.833c-0.412,0-0.807,0.109-1.186,0.286l-0.185-0.547c0.429-0.185,0.95-0.319,1.48-0.319
			c1,0,1.488,0.421,1.488,1.354v2.211l0.084,0.815H40.692z M40.499,30.683V29.43c-0.109-0.024-0.445-0.042-0.58-0.042
			c-0.656,0-0.917,0.102-1.093,0.286c-0.143,0.134-0.219,0.345-0.219,0.597c0,0.556,0.336,0.85,0.857,0.85
			C39.809,31.12,40.171,30.96,40.499,30.683z"/>
		<path d="M43.539,31.641c-0.589,0-1.186-0.16-1.648-0.412l0.218-0.571c0.429,0.243,0.967,0.403,1.43,0.403
			c0.521,0,0.857-0.252,0.857-0.623c0-0.328-0.193-0.521-0.967-0.781c-0.925-0.304-1.345-0.589-1.345-1.286
			c0-0.707,0.563-1.194,1.446-1.194c0.513,0,0.984,0.134,1.387,0.336l-0.21,0.563c-0.361-0.186-0.782-0.319-1.186-0.319
			c-0.479,0-0.765,0.244-0.765,0.562c0,0.337,0.227,0.505,0.958,0.758c1.042,0.345,1.354,0.681,1.354,1.319
			C45.068,31.204,44.446,31.641,43.539,31.641z"/>
		<path d="M47.79,31.044c-0.404,1.169-0.883,1.556-2.018,1.857l-0.185-0.589c0.588-0.168,0.975-0.454,1.27-0.933l-1.413-4.137h0.731
			l1.11,3.431l1.084-3.431h0.715L47.79,31.044z"/>
		<path d="M49.736,31.574v-6.079h0.715v6.079H49.736z"/>
		<path d="M52.148,27.244v2.833c0,0.597,0.277,0.925,0.824,0.925c0.361,0,0.74-0.186,1.009-0.387v-3.372h0.715v4.33H54.14
			l-0.126-0.43c-0.353,0.27-0.765,0.488-1.303,0.488c-0.815,0-1.278-0.488-1.278-1.404v-2.984L52.148,27.244L52.148,27.244z"/>
		<path d="M60.694,31.574v-2.843c0-0.597-0.286-0.917-0.824-0.917c-0.336,0-0.715,0.178-1.034,0.42
			c0.042,0.118,0.067,0.252,0.067,0.404v2.935h-0.715v-2.843c0-0.597-0.277-0.917-0.799-0.917c-0.353,0-0.723,0.186-0.992,0.388
			v3.372h-0.714v-4.33h0.555l0.126,0.42c0.353-0.27,0.765-0.479,1.278-0.479c0.496,0,0.857,0.186,1.059,0.546
			c0.42-0.311,0.892-0.546,1.421-0.546c0.807,0,1.287,0.472,1.287,1.387v3.002h-0.715V31.574z"/>
		<path d="M66.689,31.574l-0.151-0.488c-0.412,0.362-0.824,0.547-1.312,0.547c-0.756,0-1.286-0.446-1.286-1.32
			c0-0.395,0.118-0.723,0.345-0.95c0.269-0.269,0.664-0.411,1.513-0.411c0.168,0,0.555,0.024,0.698,0.059v-0.403
			c0-0.538-0.252-0.833-0.891-0.833c-0.412,0-0.807,0.109-1.186,0.286l-0.185-0.547c0.429-0.185,0.95-0.319,1.48-0.319
			c1,0,1.488,0.421,1.488,1.354v2.211l0.084,0.815H66.689z M66.496,30.683V29.43c-0.109-0.024-0.445-0.042-0.58-0.042
			c-0.656,0-0.917,0.102-1.093,0.286c-0.143,0.134-0.219,0.345-0.219,0.597c0,0.556,0.336,0.85,0.857,0.85
			C65.807,31.12,66.168,30.96,66.496,30.683z"/>
		<path d="M69.897,31.641c-0.387,0-0.723-0.135-1.017-0.336v1.572h-0.715v-5.633h0.555l0.118,0.387
			c0.269-0.235,0.623-0.454,1.127-0.454c0.933,0,1.606,0.807,1.606,2.211C71.571,30.834,70.881,31.641,69.897,31.641z
			 M69.754,27.773c-0.345,0-0.647,0.168-0.874,0.362v2.572c0.235,0.185,0.546,0.336,0.874,0.336
			c0.665-0.008,1.127-0.572,1.127-1.648C70.881,28.371,70.436,27.773,69.754,27.773z"/>
		<path d="M74.089,31.641c-0.387,0-0.723-0.135-1.017-0.336v1.572h-0.715v-5.633h0.555l0.118,0.387
			c0.269-0.235,0.623-0.454,1.127-0.454c0.933,0,1.606,0.807,1.606,2.211C75.762,30.834,75.073,31.641,74.089,31.641z
			 M73.946,27.773c-0.345,0-0.647,0.168-0.874,0.362v2.572c0.235,0.185,0.546,0.336,0.874,0.336
			c0.665-0.008,1.127-0.572,1.127-1.648C75.073,28.371,74.627,27.773,73.946,27.773z"/>
		<path d="M76.565,31.574v-6.079h0.715v6.079H76.565z"/>
		<path d="M78.287,26.613v-0.705h0.773v0.705H78.287z M78.312,31.574v-4.33h0.715v4.33H78.312z"/>
		<path d="M81.707,31.641c-1.168,0-1.883-0.899-1.883-2.228c0-1.312,0.74-2.236,1.925-2.236c0.412,0,0.74,0.084,1.06,0.218
			l-0.151,0.622c-0.286-0.126-0.563-0.21-0.891-0.21c-0.773,0-1.253,0.689-1.253,1.589c0,0.958,0.471,1.614,1.27,1.614
			c0.303,0,0.597-0.092,0.891-0.218l0.151,0.597C82.498,31.54,82.127,31.641,81.707,31.641z"/>
		<path d="M86.042,31.574l-0.151-0.488c-0.412,0.362-0.824,0.547-1.312,0.547c-0.756,0-1.286-0.446-1.286-1.32
			c0-0.395,0.118-0.723,0.345-0.95c0.269-0.269,0.664-0.411,1.513-0.411c0.168,0,0.555,0.024,0.698,0.059v-0.403
			c0-0.538-0.252-0.833-0.891-0.833c-0.412,0-0.807,0.109-1.186,0.286l-0.185-0.547c0.429-0.185,0.95-0.319,1.48-0.319
			c1,0,1.488,0.421,1.488,1.354v2.211l0.084,0.815H86.042z M85.849,30.683V29.43c-0.109-0.024-0.445-0.042-0.58-0.042
			c-0.656,0-0.917,0.102-1.093,0.286c-0.143,0.134-0.219,0.345-0.219,0.597c0,0.556,0.336,0.85,0.857,0.85
			C85.159,31.12,85.521,30.96,85.849,30.683z"/>
		<path d="M89.04,31.633c-0.799,0-1.244-0.396-1.244-1.261v-2.548h-0.631v-0.58h0.631v-1.236h0.706v1.236h1.219v0.58h-1.219v2.454
			c0,0.505,0.269,0.749,0.715,0.749c0.168,0,0.328-0.024,0.504-0.075l0.017,0.588C89.536,31.59,89.309,31.633,89.04,31.633z"/>
		<path d="M90.475,26.613v-0.705h0.773v0.705H90.475z M90.5,31.574v-4.33h0.715v4.33H90.5z"/>
		<path d="M93.802,31.658c-1.018,0-1.783-0.866-1.783-2.245c0-1.388,0.774-2.253,1.791-2.253s1.782,0.856,1.782,2.245
			C95.593,30.783,94.819,31.658,93.802,31.658z M93.802,27.765c-0.647,0-1.11,0.647-1.11,1.641c0,0.991,0.462,1.646,1.118,1.646
			c0.647,0,1.11-0.656,1.11-1.639C94.92,28.421,94.458,27.765,93.802,27.765z"/>
		<path d="M98.918,31.574V28.74c0-0.598-0.277-0.926-0.824-0.926c-0.362,0-0.74,0.186-1.009,0.388v3.372h-0.714v-4.33h0.555
			l0.126,0.42c0.353-0.27,0.765-0.479,1.303-0.479c0.824,0,1.278,0.487,1.278,1.404v2.985H98.918z"/>
		<path d="M101.958,31.641c-0.589,0-1.186-0.16-1.648-0.412l0.218-0.571c0.429,0.243,0.967,0.403,1.43,0.403
			c0.521,0,0.857-0.252,0.857-0.623c0-0.328-0.193-0.521-0.967-0.781c-0.925-0.304-1.345-0.589-1.345-1.286
			c0-0.707,0.563-1.194,1.446-1.194c0.513,0,0.984,0.134,1.387,0.336l-0.21,0.563c-0.361-0.186-0.782-0.319-1.186-0.319
			c-0.479,0-0.765,0.244-0.765,0.562c0,0.337,0.227,0.505,0.958,0.758c1.042,0.345,1.354,0.681,1.354,1.319
			C103.488,31.204,102.866,31.641,101.958,31.641z"/>
		<path d="M107.645,31.633c-0.799,0-1.244-0.396-1.244-1.261v-2.548h-0.631v-0.58h0.631v-1.236h0.706v1.236h1.219v0.58h-1.219v2.454
			c0,0.505,0.269,0.749,0.715,0.749c0.168,0,0.328-0.024,0.504-0.075l0.017,0.588C108.141,31.59,107.914,31.633,107.645,31.633z"/>
		<path d="M110.594,31.658c-1.018,0-1.783-0.866-1.783-2.245c0-1.388,0.774-2.253,1.791-2.253c1.018,0,1.782,0.856,1.782,2.245
			C112.384,30.783,111.611,31.658,110.594,31.658z M110.594,27.765c-0.647,0-1.11,0.647-1.11,1.641c0,0.991,0.462,1.646,1.118,1.646
			c0.647,0,1.11-0.656,1.11-1.639C111.712,28.421,111.25,27.765,110.594,27.765z"/>
		<path d="M115.069,31.574v-5.886h3.649v0.656h-2.9v1.883h2.581v0.647h-2.581v2.043h2.951v0.656H115.069z"/>
		<path d="M120.236,27.244v2.833c0,0.597,0.277,0.925,0.824,0.925c0.361,0,0.74-0.186,1.009-0.387v-3.372h0.715v4.33h-0.555
			l-0.126-0.43c-0.353,0.27-0.765,0.488-1.303,0.488c-0.815,0-1.278-0.488-1.278-1.404v-2.984L120.236,27.244L120.236,27.244z"/>
		<path d="M124.487,28.513v3.062h-0.715v-4.33h0.546l0.126,0.707c0.37-0.462,0.833-0.766,1.472-0.758v0.731
			C125.336,27.942,124.882,28.16,124.487,28.513z"/>
		<path d="M128.032,31.658c-1.018,0-1.783-0.866-1.783-2.245c0-1.388,0.774-2.253,1.791-2.253c1.018,0,1.782,0.856,1.782,2.245
			C129.823,30.783,129.049,31.658,128.032,31.658z M128.032,27.765c-0.647,0-1.11,0.647-1.11,1.641c0,0.991,0.462,1.646,1.118,1.646
			c0.647,0,1.11-0.656,1.11-1.639C129.15,28.421,128.688,27.765,128.032,27.765z"/>
		<path d="M132.333,31.641c-0.387,0-0.723-0.135-1.017-0.336v1.572h-0.715v-5.633h0.555l0.118,0.387
			c0.269-0.235,0.623-0.454,1.127-0.454c0.933,0,1.606,0.807,1.606,2.211C134.006,30.834,133.317,31.641,132.333,31.641z
			 M132.19,27.773c-0.345,0-0.647,0.168-0.874,0.362v2.572c0.235,0.185,0.546,0.336,0.874,0.336
			c0.665-0.008,1.127-0.572,1.127-1.648C133.317,28.371,132.871,27.773,132.19,27.773z"/>
		<path d="M135.247,29.657c0.042,0.891,0.546,1.438,1.278,1.438c0.37,0,0.757-0.118,1.118-0.336l0.21,0.496
			c-0.438,0.252-0.917,0.395-1.388,0.395c-1.059,0-1.883-0.715-1.883-2.228c0-1.379,0.74-2.262,1.724-2.262
			c1.034,0,1.69,0.891,1.69,2.277v0.22H135.247z M135.247,29.186h2.085c-0.042-0.883-0.42-1.471-1.034-1.471
			C135.701,27.715,135.297,28.329,135.247,29.186z"/>
		<path d="M141.254,31.574l-0.151-0.488c-0.412,0.362-0.824,0.547-1.312,0.547c-0.756,0-1.286-0.446-1.286-1.32
			c0-0.395,0.118-0.723,0.345-0.95c0.269-0.269,0.664-0.411,1.513-0.411c0.168,0,0.555,0.024,0.698,0.059v-0.403
			c0-0.538-0.252-0.833-0.891-0.833c-0.412,0-0.807,0.109-1.186,0.286l-0.185-0.547c0.429-0.185,0.95-0.319,1.48-0.319
			c1,0,1.488,0.421,1.488,1.354v2.211l0.084,0.815H141.254z M141.061,30.683V29.43c-0.109-0.024-0.445-0.042-0.58-0.042
			c-0.656,0-0.917,0.102-1.093,0.286c-0.143,0.134-0.219,0.345-0.219,0.597c0,0.556,0.336,0.85,0.857,0.85
			C140.371,31.12,140.733,30.96,141.061,30.683z"/>
		<path d="M145.277,31.574V28.74c0-0.598-0.276-0.926-0.823-0.926c-0.363,0-0.74,0.186-1.01,0.388v3.372h-0.715v-4.33h0.555
			l0.127,0.42c0.353-0.27,0.764-0.479,1.303-0.479c0.824,0,1.277,0.487,1.277,1.404v2.985H145.277z"/>
		<path d="M150.888,31.658c-1.244,0-2.077-0.758-2.077-2.253v-3.717h0.757v3.741c0,1.026,0.546,1.564,1.328,1.564
			c0.791,0,1.329-0.53,1.329-1.547v-3.759h0.757v3.717C152.982,30.901,152.141,31.658,150.888,31.658z"/>
		<path d="M156.567,31.574V28.74c0-0.598-0.277-0.926-0.824-0.926c-0.361,0-0.74,0.186-1.009,0.388v3.372h-0.714v-4.33h0.555
			l0.127,0.42c0.353-0.27,0.764-0.479,1.303-0.479c0.824,0,1.277,0.487,1.277,1.404v2.985H156.567z"/>
		<path d="M158.228,26.613v-0.705H159v0.705H158.228z M158.252,31.574v-4.33h0.715v4.33H158.252z"/>
		<path d="M161.556,31.658c-1.019,0-1.783-0.866-1.783-2.245c0-1.388,0.774-2.253,1.791-2.253c1.019,0,1.782,0.856,1.782,2.245
			C163.346,30.783,162.573,31.658,161.556,31.658z M161.556,27.765c-0.647,0-1.11,0.647-1.11,1.641c0,0.991,0.463,1.646,1.118,1.646
			c0.647,0,1.11-0.656,1.11-1.639C162.674,28.421,162.211,27.765,161.556,27.765z"/>
		<path d="M166.672,31.574V28.74c0-0.598-0.277-0.926-0.824-0.926c-0.362,0-0.74,0.186-1.01,0.388v3.372h-0.715v-4.33h0.556
			l0.126,0.42c0.354-0.27,0.765-0.479,1.303-0.479c0.823,0,1.277,0.487,1.277,1.404v2.985H166.672z"/>
		<path d="M171.82,31.641c-1.168,0-1.883-0.899-1.883-2.228c0-1.312,0.74-2.236,1.926-2.236c0.412,0,0.738,0.084,1.06,0.218
			l-0.152,0.622c-0.285-0.126-0.562-0.21-0.891-0.21c-0.773,0-1.252,0.689-1.252,1.589c0,0.958,0.471,1.614,1.27,1.614
			c0.303,0,0.596-0.092,0.891-0.218l0.152,0.597C172.611,31.54,172.241,31.641,171.82,31.641z"/>
		<path d="M175.172,31.658c-1.019,0-1.781-0.866-1.781-2.245c0-1.388,0.773-2.253,1.791-2.253c1.016,0,1.781,0.856,1.781,2.245
			C176.963,30.783,176.189,31.658,175.172,31.658z M175.172,27.765c-0.646,0-1.109,0.647-1.109,1.641
			c0,0.991,0.463,1.646,1.119,1.646c0.646,0,1.109-0.656,1.109-1.639C176.292,28.421,175.829,27.765,175.172,27.765z"/>
		<path d="M178.422,27.244v2.833c0,0.597,0.277,0.925,0.824,0.925c0.36,0,0.739-0.186,1.01-0.387v-3.372h0.715v4.33h-0.555
			l-0.127-0.43c-0.354,0.27-0.767,0.488-1.304,0.488c-0.815,0-1.276-0.488-1.276-1.404v-2.984L178.422,27.244L178.422,27.244z"/>
		<path d="M184.506,31.574V28.74c0-0.598-0.277-0.926-0.824-0.926c-0.361,0-0.74,0.186-1.008,0.388v3.372h-0.715v-4.33h0.555
			l0.125,0.42c0.354-0.27,0.766-0.479,1.305-0.479c0.822,0,1.277,0.487,1.277,1.404v2.985H184.506z"/>
		<path d="M187.697,31.633c-0.799,0-1.243-0.396-1.243-1.261v-2.548h-0.632v-0.58h0.632v-1.236h0.705v1.236h1.219v0.58h-1.219v2.454
			c0,0.505,0.27,0.749,0.715,0.749c0.168,0,0.328-0.024,0.504-0.075l0.018,0.588C188.193,31.59,187.967,31.633,187.697,31.633z"/>
		<path d="M189.855,28.513v3.062h-0.715v-4.33h0.547l0.125,0.707c0.371-0.462,0.832-0.766,1.472-0.758v0.731
			C190.704,27.942,190.25,28.16,189.855,28.513z"/>
		<path d="M191.902,26.613v-0.705h0.772v0.705H191.902z M191.928,31.574v-4.33h0.715v4.33H191.928z"/>
		<path d="M194.113,29.657c0.041,0.891,0.546,1.438,1.277,1.438c0.368,0,0.756-0.118,1.118-0.336l0.209,0.496
			c-0.438,0.252-0.916,0.395-1.387,0.395c-1.061,0-1.883-0.715-1.883-2.228c0-1.379,0.738-2.262,1.723-2.262
			c1.035,0,1.689,0.891,1.689,2.277v0.22H194.113z M194.113,29.186h2.084c-0.04-0.883-0.42-1.471-1.032-1.471
			C194.566,27.715,194.165,28.329,194.113,29.186z"/>
		<path d="M198.977,31.641c-0.588,0-1.186-0.16-1.646-0.412l0.219-0.571c0.429,0.243,0.968,0.403,1.429,0.403
			c0.521,0,0.856-0.252,0.856-0.623c0-0.328-0.192-0.521-0.967-0.781c-0.924-0.304-1.344-0.589-1.344-1.286
			c0-0.707,0.562-1.194,1.445-1.194c0.514,0,0.984,0.134,1.387,0.336l-0.209,0.563c-0.361-0.186-0.783-0.319-1.186-0.319
			c-0.48,0-0.767,0.244-0.767,0.562c0,0.337,0.228,0.505,0.959,0.758c1.043,0.345,1.354,0.681,1.354,1.319
			C200.508,31.204,199.885,31.641,198.977,31.641z"/>
	</g>
	<g>
		<path d="M197.477,287.828h0.125c0.416,0,0.463-0.061,0.463-0.297v-3.675c0-0.165-0.025-0.225-0.158-0.225
			c-0.066,0-0.225,0.013-0.225,0.013c-0.316,0.021-0.66,0.682-0.951,1.381L196.605,285l0.196-1.546h3.298l0.205,1.546l-0.125,0.025
			c-0.345-0.833-0.63-1.367-0.998-1.387c0,0-0.08-0.007-0.158-0.007c-0.14,0-0.166,0.04-0.166,0.218v3.673
			c0,0.245,0.08,0.305,0.431,0.305h0.157v0.178h-1.969L197.477,287.828L197.477,287.828z"/>
		<path d="M200.611,287.828h0.072c0.401,0,0.455-0.061,0.455-0.297v-3.602c0-0.238-0.087-0.297-0.455-0.297h-0.072v-0.178h1.836
			v0.178h-0.092c-0.377,0-0.431,0.06-0.431,0.304v1.711h1.566v-1.711c0-0.245-0.066-0.304-0.424-0.304h-0.1v-0.178h1.838v0.178
			h-0.072c-0.332,0-0.449,0.06-0.449,0.297v3.602c0,0.237,0.031,0.297,0.449,0.297h0.072v0.178h-1.838v-0.178h0.1
			c0.402,0,0.424-0.061,0.424-0.305v-1.685h-1.566v1.685c0,0.245,0.06,0.305,0.431,0.305h0.092v0.178h-1.836V287.828z"/>
		<path d="M206.459,287.524c0,0.245,0.1,0.324,0.543,0.305l0.455-0.021c0.158-0.013,0.746-0.674,1.037-1.321l0.133,0.014
			l-0.219,1.506h-3.265v-0.178h0.071c0.404,0,0.457-0.061,0.457-0.364v-3.535c0-0.238-0.086-0.297-0.457-0.297h-0.071v-0.178h3.112
			l0.211,1.54l-0.127,0.025c-0.354-0.904-0.76-1.388-1.057-1.388c-0.217,0-0.502,0-0.502,0c-0.283,0-0.324,0.06-0.324,0.238v1.776
			l0.353-0.006c0.422-0.013,0.476-0.245,0.606-0.952h0.133v2.102h-0.133c-0.112-0.839-0.178-0.945-0.615-0.958l-0.344-0.006
			C206.459,285.819,206.459,287.524,206.459,287.524z"/>
		<path d="M212.124,288.112l-1.263-4.096c-0.1-0.316-0.118-0.343-0.567-0.383v-0.178h1.822v0.178
			c-0.503,0.04-0.515,0.125-0.369,0.621l0.733,2.365l0.646-2.253c-0.196-0.654-0.211-0.7-0.602-0.733v-0.178h1.824v0.178
			c-0.602,0.046-0.596,0.125-0.449,0.628l0.721,2.412l0.728-2.504c0.11-0.383,0.139-0.482-0.318-0.522l-0.146-0.013v-0.178h1.242
			v0.178c-0.396,0.053-0.424,0.112-0.555,0.555l-1.15,3.924h-0.139l-1.037-3.362l-0.99,3.362L212.124,288.112L212.124,288.112z"/>
		<path d="M216.385,287.213c-0.158,0.469-0.139,0.582,0.371,0.608l0.172,0.007v0.178h-1.355v-0.178
			c0.357-0.033,0.404-0.073,0.568-0.556l1.309-3.925h0.146l1.396,4.05c0.118,0.324,0.151,0.384,0.442,0.417l0.139,0.014v0.178
			h-2.016v-0.178l0.133-0.007c0.621-0.021,0.58-0.105,0.463-0.463l-0.338-1.018c0,0-1.138,0-1.144,0L216.385,287.213z
			 M217.238,284.63l-0.502,1.513h1.005C217.747,286.143,217.238,284.63,217.238,284.63z"/>
		<path d="M219.797,287.828h0.072c0.403,0,0.457-0.061,0.457-0.364v-3.535c0-0.238-0.086-0.297-0.457-0.297h-0.072v-0.178h1.877
			v0.178h-0.166c-0.33,0-0.396,0.06-0.396,0.238v3.588c0,0.245,0.066,0.39,0.568,0.37l0.352-0.021
			c0.164-0.02,0.76-0.653,1.104-1.407l0.131,0.014l-0.229,1.592h-3.238v-0.178H219.797z"/>
		<path d="M223.559,287.828h0.072c0.404,0,0.457-0.061,0.457-0.364v-3.535c0-0.238-0.086-0.297-0.457-0.297h-0.072v-0.178h1.877
			v0.178h-0.166c-0.33,0-0.396,0.06-0.396,0.238v3.588c0,0.245,0.066,0.39,0.568,0.37l0.352-0.021
			c0.164-0.02,0.761-0.653,1.104-1.407l0.131,0.014l-0.229,1.592h-3.238v-0.178H223.559z"/>
		<path d="M229.5,287.656c-0.172,0-0.338,0.251-0.396,0.35h-0.133v-1.487h0.133c0.344,0.826,0.945,1.375,1.434,1.375
			c0.502,0,0.699-0.35,0.699-0.732c0-0.542-0.502-0.812-1.037-1.11c-0.719-0.403-1.182-0.714-1.182-1.467
			c0-0.674,0.488-1.216,1.248-1.216c0.535,0,0.746,0.337,0.926,0.337c0.1,0,0.197-0.079,0.316-0.277h0.1v1.348h-0.133
			c-0.25-0.641-0.641-1.216-1.176-1.216c-0.482,0-0.668,0.344-0.668,0.674c0,0.51,0.477,0.779,0.992,1.063
			c0.646,0.37,1.229,0.694,1.229,1.487c0,0.785-0.561,1.301-1.281,1.301C229.956,288.085,229.659,287.656,229.5,287.656z"/>
		<path d="M232.979,287.828h0.125c0.416,0,0.463-0.061,0.463-0.297v-3.675c0-0.165-0.027-0.225-0.16-0.225
			c-0.064,0-0.225,0.013-0.225,0.013c-0.316,0.021-0.66,0.682-0.951,1.381L232.105,285l0.199-1.546h3.297l0.203,1.546l-0.125,0.025
			c-0.345-0.833-0.628-1.367-0.998-1.387c0,0-0.078-0.007-0.158-0.007c-0.14,0-0.164,0.04-0.164,0.218v3.673
			c0,0.245,0.078,0.305,0.429,0.305h0.159v0.178h-1.969L232.979,287.828L232.979,287.828z"/>
		<path d="M236.111,287.828h0.072c0.403,0,0.457-0.061,0.457-0.364v-3.535c0-0.238-0.086-0.297-0.457-0.297h-0.072v-0.178
			c0,0,1.203,0,1.943,0c0.688,0,1.479,0.423,1.479,1.203c0,0.527-0.449,0.925-1.177,1.069c0.603,0.198,0.808,0.482,0.867,1.136
			c0.071,0.747,0.131,0.893,0.375,0.893c0.267,0,0.338-0.357,0.356-0.733h0.152c-0.02,0.879-0.404,1.077-0.873,1.077
			c-0.463,0-0.773-0.218-0.799-0.641l-0.053-1.156c-0.027-0.43-0.152-0.482-0.463-0.482c-0.072,0-0.312,0-0.502,0v1.705
			c0,0.245,0.125,0.305,0.363,0.305h0.139v0.178h-1.812v-0.179H236.111z M237.725,285.661c0.594,0,0.963-0.165,0.963-1.012
			c0-0.687-0.416-1.023-0.838-1.023c-0.092,0-0.105,0-0.139,0c-0.244,0-0.291,0.079-0.291,0.211v1.823
			C237.5,285.661,237.598,285.661,237.725,285.661z"/>
		<path d="M241.499,287.524c0,0.245,0.1,0.324,0.543,0.305l0.455-0.021c0.157-0.013,0.746-0.674,1.037-1.321l0.133,0.014
			l-0.22,1.506h-3.264v-0.178h0.071c0.404,0,0.457-0.061,0.457-0.364v-3.535c0-0.238-0.086-0.297-0.457-0.297h-0.071v-0.178h3.112
			l0.211,1.54l-0.127,0.025c-0.354-0.904-0.76-1.388-1.057-1.388c-0.217,0-0.502,0-0.502,0c-0.283,0-0.324,0.06-0.324,0.238v1.776
			l0.353-0.006c0.422-0.013,0.476-0.245,0.606-0.952h0.133v2.102h-0.133c-0.113-0.839-0.178-0.945-0.615-0.958l-0.344-0.006
			C241.499,285.819,241.499,287.524,241.499,287.524z"/>
		<path d="M245.398,287.524c0,0.245,0.101,0.324,0.543,0.305l0.455-0.021c0.158-0.013,0.746-0.674,1.037-1.321l0.133,0.014
			l-0.219,1.506h-3.265v-0.178h0.072c0.404,0,0.457-0.061,0.457-0.364v-3.535c0-0.238-0.086-0.297-0.457-0.297h-0.072v-0.178h3.113
			l0.211,1.54l-0.127,0.025c-0.355-0.904-0.76-1.388-1.057-1.388c-0.217,0-0.502,0-0.502,0c-0.283,0-0.324,0.06-0.324,0.238v1.776
			l0.352-0.006c0.422-0.013,0.476-0.245,0.607-0.952h0.133v2.102h-0.133c-0.113-0.839-0.178-0.945-0.615-0.958l-0.344-0.006
			C245.398,285.819,245.398,287.524,245.398,287.524z"/>
		<path d="M248.752,287.828h0.125c0.416,0,0.463-0.061,0.463-0.297v-3.675c0-0.165-0.025-0.225-0.158-0.225
			c-0.066,0-0.225,0.013-0.225,0.013c-0.316,0.021-0.66,0.682-0.951,1.381L247.881,285l0.197-1.546h3.297l0.205,1.546l-0.125,0.025
			c-0.345-0.833-0.629-1.367-0.998-1.387c0,0-0.08-0.007-0.158-0.007c-0.139,0-0.166,0.04-0.166,0.218v3.673
			c0,0.245,0.08,0.305,0.43,0.305h0.158v0.178h-1.969V287.828z"/>
		<path d="M253.186,287.273c0.008-0.43,0.338-0.621,0.549-0.607c0.186,0.007,0.35,0.151,0.338,0.402
			c-0.014,0.396-0.502,0.356-0.51,0.556c-0.006,0.191,0.139,0.337,0.404,0.337c0.547,0,0.527-0.595,0.527-1.05v-2.98
			c0-0.238-0.086-0.297-0.449-0.297h-0.133v-0.178h1.852v0.178h-0.16c-0.25,0-0.316,0.06-0.316,0.304v3.021
			c0,0.792-0.621,1.195-1.229,1.195C253.577,288.152,253.167,287.822,253.186,287.273z"/>
		<path d="M256.004,285.727c0-1.434,1.012-2.358,1.922-2.358c0.912,0,1.916,0.925,1.916,2.358c0,1.435-1.004,2.358-1.916,2.358
			C257.016,288.085,256.004,287.161,256.004,285.727z M258.918,286.506c0.033-0.522,0.033-0.971,0-1.486
			c-0.066-0.998-0.277-1.479-0.992-1.479c-0.693,0-0.924,0.481-0.99,1.479c-0.039,0.516-0.033,0.964,0,1.486
			c0.053,0.826,0.291,1.414,0.99,1.414C258.627,287.92,258.866,287.333,258.918,286.506z"/>
		<path d="M260.625,286.685c0-0.634,0-2.734,0-2.734c0-0.238-0.08-0.317-0.416-0.317h-0.08v-0.178h1.924v0.178l-0.252,0.007
			c-0.297,0.006-0.383,0.086-0.383,0.337c0,0,0,2.347,0,2.775c0,0.555,0.217,1.011,0.932,1.011c0.68,0,1.084-0.284,1.084-1.235
			v-2.253c0-0.488-0.014-0.641-0.588-0.641h-0.1v-0.178h1.328v0.185c-0.416,0.033-0.425,0.092-0.425,0.642v2.285
			c0,0.866-0.383,1.514-1.452,1.514C261.338,288.079,260.625,287.683,260.625,286.685z"/>
		<path d="M264.387,287.828h0.072c0.401,0,0.455-0.061,0.455-0.364v-3.535c0-0.238-0.086-0.297-0.455-0.297h-0.072v-0.178
			c0,0,1.201,0,1.941,0c0.688,0,1.479,0.423,1.479,1.203c0,0.527-0.449,0.925-1.177,1.069c0.603,0.198,0.808,0.482,0.865,1.136
			c0.072,0.747,0.133,0.893,0.377,0.893c0.265,0,0.336-0.357,0.355-0.733h0.152c-0.021,0.879-0.402,1.077-0.871,1.077
			c-0.463,0-0.773-0.218-0.801-0.641l-0.053-1.156c-0.025-0.43-0.15-0.482-0.462-0.482c-0.073,0-0.312,0-0.504,0v1.705
			c0,0.245,0.127,0.305,0.365,0.305h0.139v0.178h-1.812v-0.179H264.387z M265.999,285.661c0.596,0,0.965-0.165,0.965-1.012
			c0-0.687-0.416-1.023-0.84-1.023c-0.093,0-0.105,0-0.14,0c-0.243,0-0.291,0.079-0.291,0.211v1.823
			C265.773,285.661,265.874,285.661,265.999,285.661z"/>
		<path d="M268.385,283.632v-0.178h1.189l2.108,3.132v-2.346c0-0.437,0.006-0.562-0.576-0.602l-0.101-0.007v-0.178h1.396v0.178
			c-0.502,0.026-0.502,0.172-0.502,0.646v3.847h-0.151l-2.57-3.865v2.96c0,0.476,0.008,0.548,0.635,0.608v0.178h-1.373v-0.178
			l0.105-0.008c0.44-0.032,0.416-0.211,0.416-0.641v-3.251C268.79,283.686,268.695,283.632,268.385,283.632z"/>
		<path d="M273.238,287.213c-0.157,0.469-0.139,0.582,0.369,0.608l0.172,0.007v0.178h-1.354v-0.178
			c0.355-0.033,0.402-0.073,0.568-0.556l1.309-3.925h0.146l1.396,4.05c0.119,0.324,0.152,0.384,0.441,0.417l0.139,0.014v0.178
			h-2.014v-0.178l0.131-0.007c0.621-0.021,0.582-0.105,0.463-0.463l-0.336-1.018c0,0-1.138,0-1.146,0L273.238,287.213z
			 M274.09,284.63l-0.502,1.513h1.004C274.6,286.143,274.09,284.63,274.09,284.63z"/>
		<path d="M276.65,287.828h0.072c0.401,0,0.454-0.061,0.454-0.364v-3.535c0-0.238-0.086-0.297-0.454-0.297h-0.072v-0.178h1.875
			v0.178h-0.164c-0.329,0-0.396,0.06-0.396,0.238v3.588c0,0.245,0.066,0.39,0.568,0.37l0.35-0.021
			c0.166-0.02,0.76-0.653,1.104-1.407l0.133,0.014l-0.231,1.592h-3.236v-0.178H276.65z"/>
		<path d="M280.637,287.583c0-0.277,0.23-0.509,0.488-0.509c0.264,0,0.487,0.23,0.487,0.509c0,0.277-0.225,0.502-0.487,0.502
			C280.868,288.085,280.637,287.861,280.637,287.583z"/>
	</g>
	<g>
		<path d="M1.607,288.027c-0.474,0-0.911-0.126-1.313-0.323l0.18-0.456c0.378,0.204,0.744,0.312,1.157,0.312
			c0.498,0,0.876-0.252,0.876-0.744c0-0.438-0.264-0.666-0.93-0.996c-0.678-0.329-1.104-0.623-1.104-1.288
			c0-0.715,0.546-1.141,1.259-1.141c0.444,0,0.744,0.09,1.085,0.252l-0.18,0.45c-0.312-0.15-0.57-0.234-0.936-0.234
			c-0.444,0-0.72,0.252-0.72,0.643c0,0.401,0.276,0.6,0.899,0.899c0.726,0.354,1.133,0.689,1.133,1.373
			C3.017,287.631,2.357,288.027,1.607,288.027z"/>
		<path d="M4.877,288.051c-0.666,0-1.193-0.63-1.193-1.739c0-1.114,0.528-1.751,1.199-1.751c0.666,0,1.193,0.636,1.193,1.739
			C6.077,287.416,5.543,288.051,4.877,288.051z M4.872,284.999c-0.438,0-0.72,0.516-0.72,1.301c0,0.81,0.288,1.312,0.731,1.312
			c0.444,0,0.726-0.51,0.726-1.301C5.609,285.509,5.321,284.999,4.872,284.999z"/>
		<path d="M8.705,288.015l-0.126-0.288l-0.216,0.234c-0.108,0.036-0.216,0.065-0.372,0.065c-0.36,0-0.66-0.107-0.888-0.336
			c-0.24-0.245-0.342-0.588-0.342-1.079v-1.991h0.486v1.967c0,0.396,0.084,0.642,0.246,0.804c0.126,0.126,0.312,0.198,0.546,0.204
			c0.132,0,0.354-0.023,0.461-0.084l0.03-0.036l-0.024-0.21v-2.645h0.485v3.394L8.705,288.015L8.705,288.015z"/>
		<path d="M10.392,285.442l-0.024,0.036l0.03,0.204v2.31H9.912v-3.389h0.264l0.15,0.588l0.366-0.443
			c0.216-0.108,0.42-0.168,0.726-0.187v0.504C11.033,285.107,10.68,285.233,10.392,285.442z"/>
		<path d="M13.181,288.033c-0.317,0-0.653-0.133-0.905-0.385c-0.294-0.288-0.492-0.726-0.492-1.331c0-0.575,0.198-1.05,0.486-1.337
			c0.258-0.258,0.569-0.396,0.923-0.396c0.216,0,0.366,0.03,0.546,0.102l-0.096,0.433c-0.156-0.061-0.282-0.084-0.438-0.084
			c-0.222,0-0.426,0.084-0.588,0.258c-0.216,0.204-0.36,0.576-0.36,1.014c0,0.475,0.144,0.804,0.36,1.021
			c0.168,0.174,0.39,0.258,0.605,0.258c0.156,0,0.282-0.03,0.432-0.09l0.09,0.419C13.565,287.985,13.403,288.033,13.181,288.033z"/>
		<path d="M14.952,286.588l-0.27-0.072l-0.066,0.066l0.084,0.174c0.126,0.6,0.474,0.864,0.917,0.864
			c0.252,0,0.426-0.048,0.684-0.156l0.132,0.384c-0.293,0.126-0.521,0.187-0.857,0.187c-0.684,0-1.343-0.48-1.343-1.722
			c0-1.079,0.528-1.751,1.193-1.751c0.684,0,1.169,0.63,1.169,1.775v0.252L14.952,286.588L14.952,286.588z M16.151,286.078
			c-0.054-0.702-0.312-1.127-0.731-1.127s-0.702,0.462-0.756,1.134l-0.048,0.167l0.066,0.065l0.216-0.071h1.026l0.222,0.071
			l0.066-0.065L16.151,286.078z"/>
		<path d="M17.274,285.395v-0.744h0.647v0.744H17.274z M17.274,287.991v-0.738h0.647v0.738H17.274z"/>
		<path d="M20.37,287.991v-4.563h2.375v0.479h-1.613l-0.252-0.078l-0.06,0.06l0.078,0.24v1.055l-0.078,0.246l0.06,0.061l0.252-0.078
			h1.332v0.462h-1.332l-0.252-0.078l-0.06,0.06l0.078,0.246v1.183l-0.078,0.246l0.06,0.06l0.252-0.078h1.679v0.48L20.37,287.991
			L20.37,287.991z"/>
		<path d="M25.427,288.015l-0.126-0.288l-0.216,0.234c-0.108,0.036-0.216,0.065-0.372,0.065c-0.359,0-0.659-0.107-0.887-0.336
			c-0.24-0.245-0.342-0.588-0.342-1.079v-1.991h0.486v1.967c0,0.396,0.084,0.642,0.246,0.804c0.126,0.126,0.312,0.198,0.546,0.204
			c0.132,0,0.354-0.023,0.461-0.084l0.03-0.036l-0.024-0.21v-2.645h0.485v3.394L25.427,288.015L25.427,288.015z"/>
		<path d="M27.114,285.442l-0.024,0.036l0.03,0.204v2.31h-0.485v-3.389h0.264l0.15,0.588l0.366-0.443
			c0.216-0.108,0.42-0.168,0.726-0.187v0.504C27.755,285.107,27.402,285.233,27.114,285.442z"/>
		<path d="M29.706,288.051c-0.666,0-1.193-0.63-1.193-1.739c0-1.114,0.528-1.751,1.199-1.751c0.666,0,1.193,0.636,1.193,1.739
			C30.905,287.416,30.371,288.051,29.706,288.051z M29.7,284.999c-0.438,0-0.72,0.516-0.72,1.301c0,0.81,0.288,1.312,0.731,1.312
			c0.444,0,0.726-0.51,0.726-1.301C30.437,285.509,30.149,284.999,29.7,284.999z"/>
		<path d="M32.532,288.039c-0.384,0-0.761-0.108-1.085-0.288l0.174-0.384c0.3,0.161,0.611,0.27,0.923,0.27
			c0.36,0,0.618-0.192,0.618-0.516c0-0.318-0.252-0.461-0.69-0.671c-0.521-0.24-0.893-0.456-0.893-0.983
			c0-0.564,0.426-0.888,0.983-0.888c0.36,0,0.636,0.078,0.917,0.228l-0.168,0.384c-0.246-0.126-0.492-0.204-0.762-0.204
			c-0.318,0-0.521,0.187-0.521,0.45c0,0.307,0.246,0.438,0.671,0.637c0.534,0.245,0.912,0.479,0.912,1.024
			C33.611,287.728,33.114,288.039,32.532,288.039z"/>
		<path d="M35.76,288.021c-0.708,0-1.229-0.354-1.229-1.229v-1.5l0.072-0.246l-0.054-0.048l-0.234,0.071h-0.24v-0.42h0.24
			l0.234,0.072l0.054-0.048l-0.072-0.246v-0.894h0.48v0.894l-0.072,0.246l0.054,0.048l0.234-0.072h0.702v0.42h-0.702l-0.234-0.071
			l-0.054,0.048l0.072,0.246v1.469c0,0.594,0.306,0.828,0.779,0.828c0.054,0,0.09,0,0.132-0.006l0.012,0.426
			C35.879,288.021,35.837,288.021,35.76,288.021z"/>
		<path d="M38.399,287.991l-0.126-0.336l-0.288,0.287c-0.12,0.055-0.246,0.084-0.426,0.084c-0.582,0-1.109-0.348-1.109-1.062
			c0-0.3,0.09-0.558,0.27-0.738c0.216-0.222,0.546-0.33,1.265-0.335l0.234,0.072l0.054-0.054l-0.054-0.181l-0.012-0.132
			c-0.018-0.384-0.246-0.6-0.678-0.6c-0.24,0-0.474,0.06-0.689,0.132l-0.126-0.39c0.246-0.091,0.516-0.156,0.845-0.156
			c0.69,0,1.116,0.336,1.116,1.08v1.751l0.084,0.576H38.399z M38.202,287.236v-0.768l0.066-0.246l-0.048-0.06l-0.204,0.054
			c-0.54,0.018-0.786,0.102-0.924,0.24c-0.12,0.12-0.186,0.288-0.186,0.485c0,0.217,0.072,0.391,0.192,0.503
			c0.126,0.126,0.3,0.192,0.534,0.204c0.204,0,0.408-0.042,0.576-0.162l0.024-0.035L38.202,287.236z"/>
		<path d="M40.961,288.021c-0.708,0-1.229-0.354-1.229-1.229v-1.5l0.072-0.246l-0.054-0.048l-0.234,0.071h-0.24v-0.42h0.24
			l0.234,0.072l0.054-0.048l-0.072-0.246v-0.894h0.48v0.894l-0.072,0.246l0.054,0.048l0.234-0.072h0.702v0.42h-0.702l-0.234-0.071
			l-0.054,0.048l0.072,0.246v1.469c0,0.594,0.306,0.828,0.779,0.828c0.054,0,0.09,0,0.132-0.006l0.012,0.426
			C41.081,288.021,41.039,288.021,40.961,288.021z"/>
	</g>
	<polygon id="Germany_3_" fill="#BB2C77" points="13.979,257.85 50.974,255.946 87.969,251.082 124.963,249.595 161.959,241.996 
		198.954,226.566 235.95,202.859 235.95,266.275 13.979,266.275 	"/>
	<polygon id="Sweden_3_" fill="#EF3A43" points="13.979,250.073 50.974,248.36 87.969,241.095 124.963,240.305 161.959,228.255 
		198.954,209.567 235.95,177.431 235.95,202.859 198.954,226.566 161.959,241.996 124.963,249.595 87.969,251.082 50.974,255.946 
		13.979,257.85 	"/>
	<polygon id="Italy_3_" fill="#FAA224" points="13.979,240.646 50.974,242.835 87.969,237.953 124.963,227.688 161.959,222.83 
		198.954,201.244 235.95,157.224 235.95,177.431 198.954,209.567 161.959,228.255 124.963,240.305 87.969,241.095 50.974,248.36 
		13.979,250.073 	"/>
	<polygon id="France_3_" fill="#FFD73D" points="13.979,227.562 50.974,227.944 87.969,221.466 124.963,209.76 161.959,203.615 
		198.954,180.524 235.95,137.608 235.95,157.224 198.954,201.244 161.959,222.83 124.963,227.688 87.969,237.953 50.974,242.835 
		13.979,240.646 	"/>
	<polygon id="Hungary_3_" fill="#E2E3E4" points="13.979,226.569 50.974,226.483 87.969,220.809 124.963,209.23 161.959,202.94 
		198.954,174.615 235.95,124.233 235.95,137.608 198.954,180.524 161.959,203.615 124.963,209.76 87.969,221.466 50.974,227.944 
		13.979,227.562 	"/>
	<polygon id="U.K._3_" fill="#E2E3E4" points="13.979,226.569 50.974,216.573 87.969,213.19 124.963,200.806 161.959,193.906 
		198.954,164.978 235.95,114.245 235.95,124.233 198.954,174.615 161.959,202.94 124.963,209.23 87.969,220.809 50.974,226.483 	"/>
	<polygon id="Austria_3_" fill="#E2E3E4" points="13.979,222.583 50.974,211.628 87.969,209.732 124.963,196.287 161.959,188.449 
		198.954,159.5 235.95,105.469 235.95,114.245 198.954,164.978 161.959,193.906 124.963,200.806 87.969,213.19 50.974,216.573 
		13.979,226.569 	"/>
	<polygon id="Neth_3_" fill="#E2E3E4" points="13.979,217.813 50.974,206.582 87.969,205.01 124.963,191.722 161.959,184.353 
		198.954,155.406 235.95,97.797 235.95,105.469 198.954,159.5 161.959,188.449 124.963,196.287 87.969,209.732 50.974,211.628 
		13.979,222.583 	"/>
	<polygon id="Belgium_3_" fill="#E2E3E4" points="13.979,212.829 50.974,199.404 87.969,196.706 124.963,181.631 161.959,175.509 
		198.954,148.772 235.95,90.653 235.95,97.797 198.954,155.406 161.959,184.353 124.963,191.722 87.969,205.01 50.974,206.582 
		13.979,217.813 	"/>
	<polygon id="Denmark_3_" fill="#E2E3E4" points="13.979,212.086 50.974,198.224 87.969,195.111 124.963,180.385 161.959,173.609 
		198.954,146.511 235.95,86.052 235.95,90.653 198.954,148.772 161.959,175.509 124.963,181.631 87.969,196.706 50.974,199.404 
		13.979,212.829 	"/>
	<polygon id="Bulgaria_3_" fill="#E2E3E4" points="13.979,211.853 50.974,197.956 87.969,194.791 124.963,180.107 161.959,173.176 
		198.954,144.277 235.95,82.587 235.95,86.052 198.954,146.511 161.959,173.609 124.963,180.385 87.969,195.111 50.974,198.224 
		13.979,212.086 	"/>
	<polygon id="Greece_3_" fill="#E2E3E4" points="13.979,205.636 50.974,192.977 87.969,191.578 124.963,177.196 161.959,170.183 
		198.954,141.706 235.95,79.637 235.95,82.587 198.954,144.277 161.959,173.176 124.963,180.107 87.969,194.791 50.974,197.956 
		13.979,211.853 	"/>
	<polygon id="Poland_3_" fill="#E2E3E4" points="13.979,202.973 50.974,189.664 87.969,189.533 124.963,175.042 161.959,166.82 
		198.954,136.938 235.95,77.128 235.95,79.637 198.954,141.706 161.959,170.183 124.963,177.196 87.969,191.578 50.974,192.977 
		13.979,205.636 	"/>
	<polygon id="Spain_3_" fill="#E2E3E4" points="13.979,201.562 50.974,188.725 87.969,188.674 124.963,173.972 161.959,166.018 
		198.954,135.533 235.95,75.372 235.95,77.128 198.954,136.938 161.959,166.82 124.963,175.042 87.969,189.533 50.974,189.664 
		13.979,202.973 	"/>
	<polygon id="Finland_3_" fill="#E2E3E4" points="13.979,200.383 50.974,186.942 87.969,187.525 124.963,173.042 161.959,165.044 
		198.954,134.526 235.95,74.24 235.95,75.372 198.954,135.533 161.959,166.018 124.963,173.972 87.969,188.674 50.974,188.725 
		13.979,201.562 	"/>
	<polygon id="Cyprus_3_" fill="#E2E3E4" points="13.979,199.157 50.974,185.941 87.969,186.626 124.963,172.49 161.959,164.533 
		198.954,134.134 235.95,73.693 235.95,74.24 198.954,134.526 161.959,165.044 124.963,173.042 87.969,187.525 50.974,186.942 
		13.979,200.383 	"/>
	<polygon id="Romania_3_" fill="#E2E3E4" points="13.979,198.788 50.974,185.64 87.969,186.35 124.963,171.951 161.959,163.748 
		198.954,133.667 235.95,73.21 235.95,73.693 198.954,134.134 161.959,164.533 124.963,172.49 87.969,186.626 50.974,185.941 
		13.979,199.157 	"/>
	<polygon id="Ireland_3_" fill="#E2E3E4" points="13.979,197.58 50.974,184.799 87.969,185.743 124.963,171.547 161.959,163.449 
		198.954,133.371 235.95,72.757 235.95,73.21 198.954,133.667 161.959,163.748 124.963,171.951 87.969,186.35 50.974,185.64 
		13.979,198.788 	"/>
	<polygon id="Malta_3_" fill="#E2E3E4" points="13.979,196.765 50.974,184.053 87.969,185.688 124.963,170.957 161.959,162.799 
		198.954,132.669 235.95,72.334 235.95,72.757 198.954,133.371 161.959,163.449 124.963,171.547 87.969,185.743 50.974,184.799 
		13.979,197.58 	"/>
	<polygon id="Czech_3_" fill="#E2E3E4" points="13.979,196.249 50.974,183.664 87.969,185.441 124.963,170.72 161.959,162.562 
		198.954,132.448 235.95,71.974 235.95,72.334 198.954,132.669 161.959,162.799 124.963,170.957 87.969,185.688 50.974,184.053 
		13.979,196.765 	"/>
	<polygon id="Lux_3_" fill="#E2E3E4" points="13.979,196.107 50.974,183.512 87.969,185.196 124.963,170.046 161.959,161.92 
		198.954,132.112 235.95,71.615 235.95,71.974 198.954,132.448 161.959,162.562 124.963,170.72 87.969,185.441 50.974,183.664 
		13.979,196.249 	"/>
	<polygon id="Croatia_3_" fill="#E2E3E4" points="13.979,196.107 50.974,183.512 87.969,185.196 124.963,170.046 161.959,161.92 
		198.954,131.775 235.95,71.473 235.95,71.615 198.954,132.112 161.959,161.92 124.963,170.046 87.969,185.196 50.974,183.512 	"/>
	<polygon id="Portugal_3_" fill="#E2E3E4" points="13.979,196.057 50.974,183.468 87.969,185.146 124.963,169.96 161.959,161.828 
		198.954,131.617 235.95,71.334 235.95,71.473 198.954,131.775 161.959,161.92 124.963,170.046 87.969,185.196 50.974,183.512 
		13.979,196.107 	"/>
	<polygon id="Lithuania_5_" fill="#E2E3E4" points="13.979,195.894 50.974,183.328 87.969,184.991 124.963,169.796 161.959,161.626 
		198.954,131.492 235.95,71.196 235.95,71.334 198.954,131.617 161.959,161.828 124.963,169.96 87.969,185.146 50.974,183.468 
		13.979,196.057 	"/>
	<polygon id="Slovenia_3_" fill="#E2E3E4" points="13.979,195.813 50.974,183.265 87.969,184.915 124.963,169.684 161.959,161.531 
		198.954,131.407 235.95,71.076 235.95,71.196 198.954,131.492 161.959,161.626 124.963,169.796 87.969,184.991 50.974,183.328 
		13.979,195.894 	"/>
	<polygon id="Latvia_3_" fill="#E2E3E4" points="13.979,195.796 50.974,183.246 87.969,184.894 124.963,169.578 161.959,161.467 
		198.954,131.346 235.95,70.959 235.95,71.076 198.954,131.407 161.959,161.531 124.963,169.684 87.969,184.915 50.974,183.265 
		13.979,195.813 	"/>
	<polygon id="Slovakia_3_" fill="#E2E3E4" points="13.979,195.513 50.974,182.99 87.969,184.725 124.963,169.424 161.959,161.239 
		198.954,131.209 235.95,70.855 235.95,70.959 198.954,131.346 161.959,161.467 124.963,169.578 87.969,184.894 50.974,183.246 
		13.979,195.796 	"/>
	<polygon id="Estonia_3_" fill="#E2E3E4" points="13.979,195.508 50.974,182.978 87.969,184.714 124.963,169.404 161.959,161.215 
		198.954,131.179 235.95,70.807 235.95,70.855 198.954,131.209 161.959,161.239 124.963,169.424 87.969,184.725 50.974,182.99 
		13.979,195.513 	"/>
	<g id="Vertical_Labels_1_">
		<g>
			<path d="M1.449,45.236l-0.525-0.173l2.169-4.653H0.556v-0.488h3.108v0.51L1.449,45.236z"/>
			<path d="M6.033,45.258c-0.999,0-1.764-0.886-1.764-2.71c0-1.817,0.766-2.71,1.764-2.71c0.998,0,1.764,0.894,1.764,2.71
				C7.797,44.373,7.031,45.258,6.033,45.258z M6.025,40.311c-0.668,0-1.208,0.691-1.208,2.229c0,1.539,0.548,2.245,1.224,2.245
				c0.661,0,1.201-0.69,1.201-2.229S6.701,40.311,6.025,40.311z"/>
			<path d="M10.263,45.258c-0.999,0-1.764-0.886-1.764-2.71c0-1.817,0.766-2.71,1.764-2.71s1.764,0.894,1.764,2.71
				C12.027,44.373,11.261,45.258,10.263,45.258z M10.255,40.311c-0.668,0-1.208,0.691-1.208,2.229c0,1.539,0.548,2.245,1.224,2.245
				c0.661,0,1.201-0.69,1.201-2.229S10.931,40.311,10.255,40.311z"/>
		</g>
		<g>
			<path d="M10.263,264.133c-0.999,0-1.764-0.886-1.764-2.71c0-1.817,0.766-2.71,1.764-2.71s1.764,0.894,1.764,2.71
				C12.027,263.247,11.261,264.133,10.263,264.133z M10.255,259.186c-0.668,0-1.208,0.691-1.208,2.229
				c0,1.539,0.548,2.245,1.224,2.245c0.661,0,1.201-0.69,1.201-2.229S10.931,259.186,10.255,259.186z"/>
		</g>
		<g>
			<path d="M1.336,232.783v-0.466h0.946v-4.25l-0.818,0.323l-0.12-0.458l1.089-0.442H2.83v4.826h0.893v0.466L1.336,232.783
				L1.336,232.783z"/>
			<path d="M6.033,232.865c-0.999,0-1.764-0.887-1.764-2.71c0-1.817,0.766-2.711,1.764-2.711c0.998,0,1.764,0.895,1.764,2.711
				C7.797,231.979,7.031,232.865,6.033,232.865z M6.025,227.918c-0.668,0-1.208,0.69-1.208,2.229c0,1.539,0.548,2.245,1.224,2.245
				c0.661,0,1.201-0.689,1.201-2.229S6.701,227.918,6.025,227.918z"/>
			<path d="M10.263,232.865c-0.999,0-1.764-0.887-1.764-2.71c0-1.817,0.766-2.711,1.764-2.711s1.764,0.895,1.764,2.711
				C12.027,231.979,11.261,232.865,10.263,232.865z M10.255,227.918c-0.668,0-1.208,0.69-1.208,2.229
				c0,1.539,0.548,2.245,1.224,2.245c0.661,0,1.201-0.689,1.201-2.229S10.931,227.918,10.255,227.918z"/>
		</g>
		<g>
			<path d="M0.503,201.515l-0.097-0.397l1.914-2.229c0.398-0.443,0.646-0.841,0.646-1.299c0-0.488-0.315-0.886-0.878-0.886
				c-0.473,0-0.878,0.248-1.284,0.683l-0.286-0.397c0.406-0.443,0.923-0.789,1.629-0.789c0.893,0,1.381,0.586,1.381,1.328
				c0,0.631-0.286,1.104-0.841,1.697l-1.524,1.802H3.64v0.488H0.503z"/>
			<path d="M6.033,201.597c-0.999,0-1.764-0.886-1.764-2.71c0-1.817,0.766-2.71,1.764-2.71c0.998,0,1.764,0.894,1.764,2.71
				C7.797,200.711,7.032,201.597,6.033,201.597z M6.025,196.65c-0.668,0-1.208,0.691-1.208,2.229c0,1.539,0.548,2.245,1.224,2.245
				c0.661,0,1.201-0.69,1.201-2.229S6.701,196.65,6.025,196.65z"/>
			<path d="M10.263,201.597c-0.999,0-1.764-0.886-1.764-2.71c0-1.817,0.766-2.71,1.764-2.71s1.764,0.894,1.764,2.71
				C12.027,200.711,11.262,201.597,10.263,201.597z M10.255,196.65c-0.668,0-1.208,0.691-1.208,2.229
				c0,1.539,0.548,2.245,1.224,2.245c0.661,0,1.201-0.69,1.201-2.229S10.931,196.65,10.255,196.65z"/>
		</g>
		<g>
			<path d="M0.511,170.3v-0.473c1.712-0.061,2.522-0.488,2.522-1.187c0-0.556-0.533-0.849-1.779-0.886l-0.061-0.383
				c1.209-0.354,1.787-0.767,1.787-1.298c0-0.406-0.338-0.677-0.916-0.677c-0.443,0-0.931,0.165-1.374,0.429l-0.188-0.413
				c0.511-0.301,1.043-0.48,1.644-0.48c0.878,0,1.396,0.443,1.396,1.074c0,0.691-0.563,1.126-1.472,1.457
				c0.991,0.12,1.524,0.465,1.524,1.201C3.596,169.707,2.395,170.24,0.511,170.3z"/>
			<path d="M6.033,170.33c-0.999,0-1.764-0.887-1.764-2.71c0-1.817,0.766-2.71,1.764-2.71c0.998,0,1.764,0.894,1.764,2.71
				C7.797,169.444,7.031,170.33,6.033,170.33z M6.025,165.382c-0.668,0-1.208,0.691-1.208,2.229c0,1.539,0.548,2.245,1.224,2.245
				c0.661,0,1.201-0.689,1.201-2.229S6.701,165.382,6.025,165.382z"/>
			<path d="M10.263,170.33c-0.999,0-1.764-0.887-1.764-2.71c0-1.817,0.766-2.71,1.764-2.71s1.764,0.894,1.764,2.71
				C12.027,169.444,11.261,170.33,10.263,170.33z M10.255,165.382c-0.668,0-1.208,0.691-1.208,2.229
				c0,1.539,0.548,2.245,1.224,2.245c0.661,0,1.201-0.689,1.201-2.229S10.931,165.382,10.255,165.382z"/>
		</g>
		<g>
			<path d="M3.101,137.718v1.261H2.568v-1.261h-2.38l-0.007-0.436l2.245-3.597h0.676v3.581h0.653v0.451H3.101z M2.576,134.317
				l-1.877,2.958h1.877V134.317z"/>
			<path d="M6.033,139.062c-0.999,0-1.764-0.886-1.764-2.71c0-1.816,0.766-2.71,1.764-2.71c0.998,0,1.764,0.895,1.764,2.71
				C7.797,138.176,7.031,139.062,6.033,139.062z M6.025,134.115c-0.668,0-1.208,0.69-1.208,2.229c0,1.539,0.548,2.245,1.224,2.245
				c0.661,0,1.201-0.69,1.201-2.229S6.701,134.115,6.025,134.115z"/>
			<path d="M10.263,139.062c-0.999,0-1.764-0.886-1.764-2.71c0-1.816,0.766-2.71,1.764-2.71s1.764,0.895,1.764,2.71
				C12.027,138.176,11.261,139.062,10.263,139.062z M10.255,134.115c-0.668,0-1.208,0.69-1.208,2.229
				c0,1.539,0.548,2.245,1.224,2.245c0.661,0,1.201-0.69,1.201-2.229S10.931,134.115,10.255,134.115z"/>
		</g>
		<g>
			<path d="M0.608,107.809l-0.075-0.473c1.682-0.21,2.515-0.767,2.515-1.622c0-0.503-0.33-0.812-0.886-0.812
				c-0.391,0-0.743,0.15-1.134,0.384l-0.383-0.158l0.15-2.672H3.55v0.465H1.254l-0.105,1.839c0.345-0.188,0.721-0.308,1.156-0.308
				c0.788,0,1.291,0.45,1.291,1.23C3.596,106.901,2.515,107.576,0.608,107.809z"/>
			<path d="M6.033,107.794c-0.999,0-1.764-0.886-1.764-2.71c0-1.817,0.766-2.71,1.764-2.71c0.998,0,1.764,0.894,1.764,2.71
				C7.797,106.908,7.031,107.794,6.033,107.794z M6.025,102.847c-0.668,0-1.208,0.691-1.208,2.229c0,1.539,0.548,2.244,1.224,2.244
				c0.661,0,1.201-0.689,1.201-2.229S6.701,102.847,6.025,102.847z"/>
			<path d="M10.263,107.794c-0.999,0-1.764-0.886-1.764-2.71c0-1.817,0.766-2.71,1.764-2.71s1.764,0.894,1.764,2.71
				C12.027,106.908,11.261,107.794,10.263,107.794z M10.255,102.847c-0.668,0-1.208,0.691-1.208,2.229
				c0,1.539,0.548,2.244,1.224,2.244c0.661,0,1.201-0.689,1.201-2.229S10.931,102.847,10.255,102.847z"/>
		</g>
		<g>
			<path d="M1.052,73.463c0.308-0.165,0.706-0.308,1.119-0.308c0.848,0,1.441,0.562,1.441,1.599c0,1.051-0.638,1.771-1.569,1.771
				c-0.999,0-1.622-0.811-1.622-2.108c0-1.464,0.713-2.599,2.282-3.363l0.27,0.428C1.877,72.029,1.277,72.675,1.052,73.463z
				 M2.058,76.061c0.578,0,1.029-0.503,1.029-1.269c0-0.805-0.436-1.201-1.081-1.201c-0.353,0-0.758,0.143-1.021,0.308
				c-0.022,0.174-0.03,0.36-0.03,0.57C0.954,75.415,1.36,76.061,2.058,76.061z"/>
			<path d="M6.033,76.526c-0.999,0-1.764-0.886-1.764-2.71c0-1.816,0.766-2.71,1.764-2.71c0.998,0,1.764,0.895,1.764,2.71
				C7.797,75.64,7.031,76.526,6.033,76.526z M6.025,71.579c-0.668,0-1.208,0.69-1.208,2.229c0,1.539,0.548,2.245,1.224,2.245
				c0.661,0,1.201-0.69,1.201-2.229C7.242,72.285,6.701,71.579,6.025,71.579z"/>
			<path d="M10.263,76.526c-0.999,0-1.764-0.886-1.764-2.71c0-1.816,0.766-2.71,1.764-2.71s1.764,0.895,1.764,2.71
				C12.027,75.64,11.261,76.526,10.263,76.526z M10.255,71.579c-0.668,0-1.208,0.69-1.208,2.229c0,1.539,0.548,2.245,1.224,2.245
				c0.661,0,1.201-0.69,1.201-2.229C11.472,72.285,10.931,71.579,10.255,71.579z"/>
		</g>
	</g>
	<g>
		<path d="M15.812,45.229c-0.691,0-1.081-0.353-1.081-1.096V41.76H14.16v-0.435h0.571v-1.111h0.525v1.111h1.126v0.435h-1.126v2.305
			c0,0.48,0.248,0.713,0.668,0.713c0.15,0,0.3-0.021,0.451-0.066l0.015,0.435C16.218,45.198,16.03,45.229,15.812,45.229z"/>
		<path d="M19.398,45.176v-2.538c0-0.585-0.277-0.901-0.803-0.901c-0.353,0-0.721,0.174-0.968,0.375v3.063h-0.525v-5.428h0.525
			v1.937c0.315-0.232,0.683-0.413,1.148-0.413c0.729,0,1.141,0.443,1.141,1.262v2.643L19.398,45.176L19.398,45.176z"/>
		<path d="M22.187,45.251c-0.886,0-1.562-0.781-1.562-1.997s0.684-2.004,1.569-2.004c0.885,0,1.554,0.781,1.554,1.997
			C23.749,44.462,23.073,45.251,22.187,45.251z M22.187,41.7c-0.615,0-1.058,0.624-1.058,1.547s0.443,1.554,1.066,1.554
			c0.616,0,1.059-0.623,1.059-1.546S22.811,41.7,22.187,41.7z"/>
		<path d="M24.984,41.325v2.536c0,0.578,0.278,0.901,0.803,0.901c0.353,0,0.721-0.18,0.968-0.375v-3.062h0.526v3.851h-0.406
			L26.778,44.8c-0.315,0.233-0.691,0.428-1.164,0.428c-0.736,0-1.149-0.442-1.149-1.261v-2.643L24.984,41.325L24.984,41.325z"/>
		<path d="M29.395,45.236c-0.503,0-1.021-0.143-1.419-0.367l0.166-0.42c0.375,0.21,0.841,0.353,1.253,0.353
			c0.503,0,0.833-0.248,0.833-0.616c0-0.323-0.188-0.51-0.909-0.758c-0.811-0.278-1.171-0.533-1.171-1.126
			c0-0.608,0.488-1.028,1.239-1.028c0.443,0,0.848,0.113,1.201,0.293l-0.165,0.42C30.108,41.82,29.74,41.7,29.379,41.7
			c-0.458,0-0.735,0.239-0.735,0.562c0,0.331,0.218,0.496,0.893,0.729c0.916,0.308,1.186,0.615,1.186,1.164
			C30.723,44.846,30.175,45.236,29.395,45.236z"/>
		<path d="M33.746,45.176l-0.135-0.45c-0.383,0.33-0.758,0.503-1.193,0.503c-0.668,0-1.149-0.397-1.149-1.171
			c0-0.345,0.113-0.638,0.308-0.833c0.248-0.248,0.601-0.375,1.396-0.375c0.135,0,0.488,0.016,0.601,0.045v-0.391
			c0-0.51-0.24-0.788-0.826-0.788c-0.368,0-0.721,0.098-1.066,0.255l-0.135-0.413c0.368-0.158,0.811-0.277,1.269-0.277
			c0.855,0,1.276,0.367,1.276,1.179v1.997l0.083,0.721L33.746,45.176L33.746,45.176z M33.573,44.402v-1.179
			c-0.09-0.021-0.42-0.037-0.525-0.037c-0.653,0-0.901,0.099-1.081,0.271c-0.127,0.135-0.203,0.338-0.203,0.57
			c0,0.525,0.315,0.812,0.811,0.812C32.913,44.838,33.258,44.68,33.573,44.402z"/>
		<path d="M37.315,45.176v-2.538c0-0.585-0.278-0.901-0.803-0.901c-0.353,0-0.721,0.174-0.968,0.375v3.063h-0.525v-3.851h0.405
			l0.098,0.375c0.315-0.24,0.69-0.429,1.171-0.429c0.729,0,1.141,0.443,1.141,1.262v2.643L37.315,45.176L37.315,45.176z"/>
		<path d="M40.044,41.265c0.353,0,0.668,0.127,0.931,0.315v-1.832H41.5v5.428h-0.398l-0.098-0.338
			c-0.24,0.195-0.563,0.397-1.006,0.397c-0.848,0-1.441-0.735-1.441-1.967C38.558,41.985,39.174,41.265,40.044,41.265z
			 M40.142,44.793c0.331,0,0.623-0.165,0.833-0.345v-2.418c-0.225-0.174-0.525-0.323-0.841-0.323
			c-0.623,0.007-1.074,0.548-1.074,1.554C39.061,44.222,39.497,44.793,40.142,44.793z"/>
	</g>
	<line fill="none" stroke="#BFBFBF" stroke-width="0.5" x1="0" y1="47.4" x2="235.95" y2="47.4"/>
	<line id="line_11_" fill="none" stroke="#BFBFBF" stroke-width="0.5" x1="0" y1="235.007" x2="235.95" y2="235.007"/>
	<line id="line_10_" fill="none" stroke="#BFBFBF" stroke-width="0.5" x1="0" y1="203.74" x2="235.95" y2="203.74"/>
	<line id="line_9_" fill="none" stroke="#BFBFBF" stroke-width="0.5" x1="0" y1="172.471" x2="235.95" y2="172.471"/>
	<line id="line_8_" fill="none" stroke="#BFBFBF" stroke-width="0.5" x1="0" y1="141.204" x2="235.95" y2="141.204"/>
	<line id="line_7_" fill="none" stroke="#BFBFBF" stroke-width="0.5" x1="0" y1="109.936" x2="235.95" y2="109.936"/>
	<line id="line_6_" fill="none" stroke="#BFBFBF" stroke-width="0.5" x1="0" y1="78.668" x2="235.95" y2="78.668"/>
	
		<polyline id="Germany_2_" fill="none" stroke="#C7C8CA" stroke-width="0.25" stroke-linejoin="round" stroke-miterlimit="10" points="
		13.979,257.85 50.974,255.946 87.969,251.082 124.963,249.595 161.959,241.996 198.954,226.566 235.95,202.859 	"/>
	
		<polyline id="Sweden_2_" fill="none" stroke="#C7C8CA" stroke-width="0.25" stroke-linejoin="round" stroke-miterlimit="10" points="
		13.979,250.073 50.974,248.36 87.969,241.095 124.963,240.305 161.959,228.255 198.954,209.567 235.95,177.431 	"/>
	
		<polyline id="Italy_2_" fill="none" stroke="#C7C8CA" stroke-width="0.25" stroke-linejoin="round" stroke-miterlimit="10" points="
		13.979,240.646 50.974,242.835 87.969,237.953 124.963,227.688 161.959,222.83 198.954,201.244 235.95,157.224 	"/>
	
		<polyline id="France_2_" fill="none" stroke="#C7C8CA" stroke-width="0.25" stroke-linejoin="round" stroke-miterlimit="10" points="
		13.979,227.562 50.974,227.944 87.969,221.466 124.963,209.76 161.959,203.615 198.954,180.524 235.95,137.608 	"/>
	
		<polyline id="Hungary_2_" fill="none" stroke="#C7C8CA" stroke-width="0.25" stroke-linejoin="round" stroke-miterlimit="10" points="
		13.979,226.569 50.974,226.483 87.969,220.809 124.963,209.23 161.959,202.94 198.954,174.615 235.95,124.233 	"/>
	<polyline id="U.K._2_" fill="none" stroke="#C7C8CA" stroke-width="0.25" stroke-linejoin="round" stroke-miterlimit="10" points="
		13.979,226.569 50.974,216.573 87.969,213.19 124.963,200.806 161.959,193.906 198.954,164.978 235.95,114.245 	"/>
	
		<polyline id="Austria_2_" fill="none" stroke="#C7C8CA" stroke-width="0.25" stroke-linejoin="round" stroke-miterlimit="10" points="
		13.979,222.583 50.974,211.628 87.969,209.732 124.963,196.287 161.959,188.449 198.954,159.5 235.95,105.469 	"/>
	<polyline id="Neth_2_" fill="none" stroke="#C7C8CA" stroke-width="0.25" stroke-linejoin="round" stroke-miterlimit="10" points="
		13.979,217.813 50.974,206.582 87.969,205.01 124.963,191.722 161.959,184.353 198.954,155.406 235.95,97.797 	"/>
	
		<polyline id="Belgium_2_" fill="none" stroke="#C7C8CA" stroke-width="0.25" stroke-linejoin="round" stroke-miterlimit="10" points="
		13.979,212.829 50.974,199.404 87.969,196.706 124.963,181.631 161.959,175.509 198.954,148.772 235.95,90.653 	"/>
	
		<polyline id="Denmark_2_" fill="none" stroke="#C7C8CA" stroke-width="0.25" stroke-linejoin="round" stroke-miterlimit="10" points="
		13.979,212.086 50.974,198.224 87.969,195.111 124.963,180.385 161.959,173.609 198.954,146.511 235.95,86.052 	"/>
	
		<polyline id="Bulgaria_2_" fill="none" stroke="#C7C8CA" stroke-width="0.25" stroke-linejoin="round" stroke-miterlimit="10" points="
		13.979,211.853 50.974,197.956 87.969,194.791 124.963,180.107 161.959,173.176 198.954,144.277 235.95,82.587 	"/>
	
		<polyline id="Greece_2_" fill="none" stroke="#C7C8CA" stroke-width="0.25" stroke-linejoin="round" stroke-miterlimit="10" points="
		13.979,205.636 50.974,192.977 87.969,191.578 124.963,177.196 161.959,170.183 198.954,141.706 235.95,79.637 	"/>
	
		<polyline id="Poland_2_" fill="none" stroke="#C7C8CA" stroke-width="0.25" stroke-linejoin="round" stroke-miterlimit="10" points="
		13.979,202.973 50.974,189.664 87.969,189.533 124.963,175.042 161.959,166.82 198.954,136.938 235.95,77.128 	"/>
	
		<polyline id="Spain_2_" fill="none" stroke="#C7C8CA" stroke-width="0.25" stroke-linejoin="round" stroke-miterlimit="10" points="
		13.979,201.562 50.974,188.725 87.969,188.674 124.963,173.972 161.959,166.018 198.954,135.533 235.95,75.372 	"/>
	
		<polyline id="Finland_2_" fill="none" stroke="#C7C8CA" stroke-width="0.25" stroke-linejoin="round" stroke-miterlimit="10" points="
		13.979,200.383 50.974,186.942 87.969,187.525 124.963,173.042 161.959,165.044 198.954,134.526 235.95,74.24 	"/>
	
		<polyline id="Cyprus_2_" fill="none" stroke="#C7C8CA" stroke-width="0.25" stroke-linejoin="round" stroke-miterlimit="10" points="
		13.979,199.157 50.974,185.941 87.969,186.626 124.963,172.49 161.959,164.533 198.954,134.134 235.95,73.693 	"/>
	
		<polyline id="Romania_2_" fill="none" stroke="#C7C8CA" stroke-width="0.25" stroke-linejoin="round" stroke-miterlimit="10" points="
		13.979,198.788 50.974,185.64 87.969,186.35 124.963,171.951 161.959,163.748 198.954,133.667 235.95,73.21 	"/>
	
		<polyline id="Ireland_2_" fill="none" stroke="#C7C8CA" stroke-width="0.25" stroke-linejoin="round" stroke-miterlimit="10" points="
		13.979,197.58 50.974,184.799 87.969,185.743 124.963,171.547 161.959,163.449 198.954,133.371 235.95,72.757 	"/>
	
		<polyline id="Malta_2_" fill="none" stroke="#C7C8CA" stroke-width="0.25" stroke-linejoin="round" stroke-miterlimit="10" points="
		13.979,196.765 50.974,184.053 87.969,185.688 124.963,170.957 161.959,162.799 198.954,132.669 235.95,72.334 	"/>
	
		<polyline id="Czech_2_" fill="none" stroke="#C7C8CA" stroke-width="0.25" stroke-linejoin="round" stroke-miterlimit="10" points="
		13.979,196.249 50.974,183.664 87.969,185.441 124.963,170.72 161.959,162.562 198.954,132.448 235.95,71.974 	"/>
	<polyline id="Lux_2_" fill="none" stroke="#C7C8CA" stroke-width="0.25" stroke-linejoin="round" stroke-miterlimit="10" points="
		13.979,196.107 50.974,183.512 87.969,185.196 124.963,170.046 161.959,161.92 198.954,132.112 235.95,71.615 	"/>
	
		<polyline id="Croatia_2_" fill="none" stroke="#C7C8CA" stroke-width="0.25" stroke-linejoin="round" stroke-miterlimit="10" points="
		13.979,196.107 50.974,183.512 87.969,185.196 124.963,170.046 161.959,161.92 198.954,131.775 235.95,71.473 	"/>
	
		<polyline id="Portugal_2_" fill="none" stroke="#C7C8CA" stroke-width="0.25" stroke-linejoin="round" stroke-miterlimit="10" points="
		13.979,196.057 50.974,183.468 87.969,185.146 124.963,169.96 161.959,161.828 198.954,131.617 235.95,71.334 	"/>
	
		<polyline id="Lithuania_4_" fill="none" stroke="#C7C8CA" stroke-width="0.25" stroke-linejoin="round" stroke-miterlimit="10" points="
		13.979,195.894 50.974,183.328 87.969,184.991 124.963,169.796 161.959,161.626 198.954,131.492 235.95,71.196 	"/>
	
		<polyline id="Slovenia_2_" fill="none" stroke="#C7C8CA" stroke-width="0.25" stroke-linejoin="round" stroke-miterlimit="10" points="
		13.979,195.813 50.974,183.265 87.969,184.915 124.963,169.684 161.959,161.531 198.954,131.407 235.95,71.076 	"/>
	
		<polyline id="Latvia_2_" fill="none" stroke="#C7C8CA" stroke-width="0.25" stroke-linejoin="round" stroke-miterlimit="10" points="
		13.979,195.796 50.974,183.246 87.969,184.894 124.963,169.578 161.959,161.467 198.954,131.346 235.95,70.959 	"/>
	
		<polyline id="Slovakia_2_" fill="none" stroke="#C7C8CA" stroke-width="0.25" stroke-linejoin="round" stroke-miterlimit="10" points="
		13.979,195.513 50.974,182.99 87.969,184.725 124.963,169.424 161.959,161.239 198.954,131.209 235.95,70.855 	"/>
	
		<polyline id="Estonia_2_" fill="none" stroke="#C7C8CA" stroke-width="0.25" stroke-linejoin="round" stroke-miterlimit="10" points="
		13.979,195.508 50.974,182.978 87.969,184.714 124.963,169.404 161.959,161.215 198.954,131.179 235.95,70.807 	"/>
	<line id="Zero_baseline_2_" fill="none" stroke="#000000" stroke-width="0.5" x1="0" y1="266.275" x2="235.95" y2="266.275"/>
	<line fill="none" stroke="#000000" stroke-width="0.5" x1="13.979" y1="266.275" x2="13.979" y2="269.275"/>
	<line fill="none" stroke="#000000" stroke-width="0.5" x1="50.974" y1="266.275" x2="50.974" y2="269.275"/>
	<line fill="none" stroke="#000000" stroke-width="0.5" x1="87.969" y1="266.275" x2="87.969" y2="269.275"/>
	<line fill="none" stroke="#000000" stroke-width="0.5" x1="124.963" y1="266.275" x2="124.963" y2="269.275"/>
	<line fill="none" stroke="#000000" stroke-width="0.5" x1="161.959" y1="266.275" x2="161.959" y2="269.275"/>
	<line fill="none" stroke="#000000" stroke-width="0.5" x1="198.954" y1="266.275" x2="198.954" y2="269.275"/>
	<line fill="none" stroke="#000000" stroke-width="0.5" x1="235.95" y1="266.275" x2="235.95" y2="269.275"/>
</g>
</svg>
